<svg xmlns="http://www.w3.org/2000/svg" viewBox="0 0 1700 1700"><path d="M50 50h1600v1600H50z"/><path fill="#005ba9" d="M-174-46h2048v1792H-174z"/><path fill="#fff" d="M1387.3 1090.9l29.4 59.3c8.1 16.4 1.4 36.2-14.9 44.4l-135.5 68.1c-33.2 16.5-73.6 2.5-89.4-31.2L1047 955H758c-33 0-60.9-24.2-65.6-56.9-70.1-490.9-66.1-460.4-66.9-472.9 0-75.2 62.7-135.8 138.8-132.3 68.8 3.2 124.3 59.8 126.1 128.7 1.8 68.1-47.9 125-113 134.6l9.7 67.6H1056c18.3 0 33.1 14.8 33.1 33.1v66.2c0 18.3-14.8 33.1-33.1 33.1H806l9.5 66.2h273.7c25.7 0 49 14.8 59.9 38.1l119 253.3 74.9-38c16.3-7.9 36.2-1.2 44.3 15.1zm-382.3-69.6h-50.7C938.2 1133.5 841.5 1220 724.9 1220c-127.8 0-231.8-104-231.8-231.8 0-85.9 47-161 116.6-201-7.7-53.7-14.2-99-19.6-137.3C455.8 703.6 360.7 835 360.7 988.2c0 200.8 163.4 364.2 364.2 364.2 148.7 0 276.9-89.6 333.4-217.7l-53.3-113.4z"/></svg>