<?xml version="1.0" encoding="UTF-8" standalone="no"?>
<!-- Generator: Adobe Illustrator 22.0.1, SVG Export Plug-In . SVG Version: 6.00 Build 0)  -->

<svg
   xmlns:dc="http://purl.org/dc/elements/1.1/"
   xmlns:cc="http://creativecommons.org/ns#"
   xmlns:rdf="http://www.w3.org/1999/02/22-rdf-syntax-ns#"
   xmlns:svg="http://www.w3.org/2000/svg"
   xmlns="http://www.w3.org/2000/svg"
   xmlns:sodipodi="http://sodipodi.sourceforge.net/DTD/sodipodi-0.dtd"
   xmlns:inkscape="http://www.inkscape.org/namespaces/inkscape"
   version="1.1"
   id="Layer_1"
   x="0px"
   y="0px"
   viewBox="0 0 1700 1700"
   style="enable-background:new 0 0 1700 1700;"
   xml:space="preserve"
   sodipodi:docname="accessible-parking.svg"
   inkscape:version="0.92.3 (2405546, 2018-03-11)"><metadata
   id="metadata17"><rdf:RDF><cc:Work
       rdf:about=""><dc:format>image/svg+xml</dc:format><dc:type
         rdf:resource="http://purl.org/dc/dcmitype/StillImage" /></cc:Work></rdf:RDF></metadata><defs
   id="defs15" /><sodipodi:namedview
   pagecolor="#ffffff"
   bordercolor="#666666"
   borderopacity="1"
   objecttolerance="10"
   gridtolerance="10"
   guidetolerance="10"
   inkscape:pageopacity="0"
   inkscape:pageshadow="2"
   inkscape:window-width="1920"
   inkscape:window-height="1027"
   id="namedview13"
   showgrid="false"
   showguides="false"
   inkscape:zoom="0.13882353"
   inkscape:cx="1145.339"
   inkscape:cy="850"
   inkscape:window-x="-8"
   inkscape:window-y="-8"
   inkscape:window-maximized="1"
   inkscape:current-layer="Layer_1" />
<style
   type="text/css"
   id="style2">
	.st0{fill:none;}
	.st1{fill:#006699;stroke:#FFFFFF;}
	.st2{fill:#FFFFFF;stroke:#000000;stroke-miterlimit:10;}
</style>
<rect
   id="rect3722"
   width="1600"
   height="1600"
   x="50"
   y="50"
   style="stroke-width:0.94117653" /><rect
   id="backgroundrect"
   x="-174"
   y="-46"
   class="st0"
   width="2048"
   height="1792" />
<title
   id="title5">Layer 1</title>

<g
   id="g10">
	<path
   class="st2"
   d="M1387.3,1090.9l29.4,59.3c8.1,16.4,1.4,36.2-14.9,44.4l-135.5,68.1c-33.2,16.5-73.6,2.5-89.4-31.2   l-129.9-276.5H758c-33,0-60.9-24.2-65.6-56.9c-70.1-490.9-66.1-460.4-66.9-472.9c0-75.2,62.7-135.8,138.8-132.3   c68.8,3.2,124.3,59.8,126.1,128.7c1.8,68.1-47.9,125-113,134.6l9.7,67.6H1056c18.3,0,33.1,14.8,33.1,33.1v66.2   c0,18.3-14.8,33.1-33.1,33.1H806l9.5,66.2h273.7c25.7,0,49,14.8,59.9,38.1l119,253.3l74.9-38   C1359.3,1067.9,1379.2,1074.6,1387.3,1090.9L1387.3,1090.9z M1005,1021.3h-50.7c-16.1,112.2-112.8,198.7-229.4,198.7   c-127.8,0-231.8-104-231.8-231.8c0-85.9,47-161,116.6-201c-7.7-53.7-14.2-99-19.6-137.3C455.8,703.6,360.7,835,360.7,988.2   c0,200.8,163.4,364.2,364.2,364.2c148.7,0,276.9-89.6,333.4-217.7L1005,1021.3z"
   id="path8" />
</g>
</svg>