<?xml version="1.0" encoding="UTF-8" standalone="no"?>
<!-- Generator: Adobe Illustrator 21.0.2, SVG Export Plug-In . SVG Version: 6.00 Build 0)  -->

<svg
   xmlns:dc="http://purl.org/dc/elements/1.1/"
   xmlns:cc="http://creativecommons.org/ns#"
   xmlns:rdf="http://www.w3.org/1999/02/22-rdf-syntax-ns#"
   xmlns:svg="http://www.w3.org/2000/svg"
   xmlns="http://www.w3.org/2000/svg"
   xmlns:sodipodi="http://sodipodi.sourceforge.net/DTD/sodipodi-0.dtd"
   xmlns:inkscape="http://www.inkscape.org/namespaces/inkscape"
   version="1.1"
   id="Layer_1"
   x="0px"
   y="0px"
   viewBox="0 0 1700 1700"
   style="enable-background:new 0 0 1700 1700;"
   xml:space="preserve"
   sodipodi:docname="bus-stops.svg"
   inkscape:version="0.92.3 (2405546, 2018-03-11)"><metadata
   id="metadata16"><rdf:RDF><cc:Work
       rdf:about=""><dc:format>image/svg+xml</dc:format><dc:type
         rdf:resource="http://purl.org/dc/dcmitype/StillImage" /></cc:Work></rdf:RDF></metadata><defs
   id="defs14" /><sodipodi:namedview
   pagecolor="#ffffff"
   bordercolor="#666666"
   borderopacity="1"
   objecttolerance="10"
   gridtolerance="10"
   guidetolerance="10"
   inkscape:pageopacity="0"
   inkscape:pageshadow="2"
   inkscape:window-width="1920"
   inkscape:window-height="1027"
   id="namedview12"
   showgrid="false"
   inkscape:zoom="0.27764706"
   inkscape:cx="1801.0434"
   inkscape:cy="633.23681"
   inkscape:window-x="-8"
   inkscape:window-y="-8"
   inkscape:window-maximized="1"
   inkscape:current-layer="Layer_1" />
<style
   type="text/css"
   id="style2">
	.st0{fill:none;}
	.st1{fill:#996699;stroke:#FFFFFF;}
	.st2{fill:#FFFFFF;}
</style>
<rect
   id="rect3722"
   width="1600"
   height="1600"
   x="50"
   y="50"
   style="stroke-width:0.94117653" /><rect
   id="backgroundrect"
   y="-92"
   class="st0"
   width="1792"
   height="1792" />
<g
   id="g9"
   transform="translate(0,-2)">
	<title
   id="title5">Layer 1</title>
	
	<path
   id="svg_1"
   class="st2"
   d="m 653.1,1011.1 c 0,-17.8 -6.4,-33 -19.2,-45.6 -12.8,-12.6 -28.3,-18.9 -46.4,-18.9 -18.1,0 -33.6,6.3 -46.4,18.9 -12.8,12.6 -19.2,27.8 -19.2,45.6 0,17.8 6.4,33 19.2,45.6 12.8,12.6 28.3,18.9 46.4,18.9 18.1,0 33.6,-6.3 46.4,-18.9 12.7,-12.6 19.2,-27.8 19.2,-45.6 z m 525.1,0 c 0,-17.8 -6.4,-33 -19.2,-45.6 -12.8,-12.6 -28.3,-18.9 -46.4,-18.9 -18.1,0 -33.6,6.3 -46.4,18.9 -12.8,12.6 -19.2,27.8 -19.2,45.6 0,17.8 6.4,33 19.2,45.6 12.8,12.6 28.3,18.9 46.4,18.9 18.1,0 33.6,-6.3 46.4,-18.9 12.8,-12.6 19.2,-27.8 19.2,-45.6 z m -23.5,-199.4 -36.9,-193.3 c -1.7,-7.7 -5.6,-14 -11.5,-18.9 -6,-4.9 -12.9,-7.3 -20.8,-7.3 H 614.6 c -7.9,0 -14.8,2.4 -20.8,7.3 -6,4.9 -9.8,11.2 -11.5,18.9 l -36.9,193.3 c -1.7,10.1 0.7,19 7.2,26.7 6.5,7.7 14.9,11.6 25.1,11.6 h 544.7 c 10.3,0 18.6,-3.9 25.1,-11.6 6.5,-7.7 8.9,-16.6 7.2,-26.7 z m -116,-308 c 0,-6.7 -2.4,-12.4 -7.2,-17.1 -4.8,-4.7 -10.6,-7 -17.4,-7 H 685.9 c -6.8,0 -12.7,2.3 -17.4,7 -4.8,4.7 -7.2,10.4 -7.2,17.1 0,6.7 2.4,12.4 7.2,17.1 4.8,4.7 10.6,7 17.4,7 h 328.2 c 6.8,0 12.7,-2.3 17.4,-7 4.8,-4.7 7.2,-10.4 7.2,-17.1 z m 205.2,364.9 v 303.6 h -65.6 v 64.4 c 0,17.8 -6.4,33 -19.2,45.6 -12.8,12.6 -28.3,18.9 -46.4,18.9 -18.1,0 -33.6,-6.3 -46.4,-18.9 -12.8,-12.6 -19.2,-27.8 -19.2,-45.6 v -64.4 h -394 v 64.4 c 0,17.8 -6.4,33 -19.2,45.6 -12.8,12.6 -28.3,18.9 -46.4,18.9 -18.1,0 -33.6,-6.3 -46.4,-18.9 -12.8,-12.6 -19.2,-27.8 -19.2,-45.6 v -64.4 H 456.3 V 868.6 c 0,-37.6 4.3,-75 12.8,-112.3 l 52.8,-228.5 c 3.1,-26.2 19.7,-49.2 50,-69 30.3,-19.8 69.6,-34.7 118,-44.8 48.2,-10 101.6,-15 160.1,-15 58.5,0 111.9,5 160.3,15.1 48.4,10.1 87.7,25 118,44.8 30.3,19.8 46.9,42.8 50,69 l 53.9,228.5 c 7.8,34.2 11.7,71.6 11.7,112.2 z"
   inkscape:connector-curvature="0"
   style="fill:#ffffff" />
</g>
</svg>