<svg xmlns="http://www.w3.org/2000/svg" viewBox="0 0 1700 1700"><path d="M50 50h1600v1600H50z"/><path fill="#005ba9" d="M-174-46h2048v1792H-174z"/><path fill="#fff" d="M570.9 926.3c0-21-8-39-24.1-53.9-16.1-14.9-35.4-22.4-58-22.4s-41.9 7.5-58 22.4c-16.1 14.9-24.1 32.9-24.1 53.9s8 39 24.1 53.9c16.1 14.9 35.4 22.4 58 22.4s41.9-7.5 58-22.4c16.1-14.9 24.1-32.9 24.1-53.9zm18.5-152.6h521.2l-45.7-170.3c-.7-2.5-3.1-5.3-7.2-8.3-4.1-3-7.7-4.5-10.8-4.5H653c-3.1 0-6.7 1.5-10.8 4.5-4.1 3-6.5 5.8-7.2 8.3l-45.6 170.3zm703.8 152.6c0-21-8-39-24.1-53.9-16.1-14.9-35.4-22.4-58-22.4s-41.9 7.5-58 22.4c-16.1 14.9-24.1 32.9-24.1 53.9s8 39 24.1 53.9c16.1 14.9 35.4 22.4 58 22.4s41.9-7.5 58-22.4c16.1-14.9 24.1-32.9 24.1-53.9zm82.1-45.8v183.1c0 4.5-1.5 8.1-4.6 11-3.1 2.9-7 4.3-11.8 4.3h-49.2v61c0 25.4-9.6 47.1-28.7 64.9-19.2 17.8-42.4 26.7-69.8 26.7s-50.6-8.9-69.8-26.7-28.7-39.4-28.7-64.9v-61H587.3v61c0 25.4-9.6 47.1-28.7 64.9s-42.4 26.7-69.8 26.7-50.6-8.9-69.8-26.7c-19.2-17.8-28.7-39.4-28.7-64.9v-61h-49.2c-4.8 0-8.7-1.4-11.8-4.3-3.1-2.9-4.6-6.5-4.6-11V880.5c0-29.6 11.2-54.8 33.6-75.6 22.4-20.8 49.5-31.2 81.3-31.2H454l53.9-199.8c7.9-29.9 25.6-54.9 53.4-75.1 27.7-20.2 58.3-30.3 91.8-30.3h394c33.5 0 64.1 10.1 91.8 30.3 27.7 20.2 45.5 45.2 53.4 75.1l53.9 199.8h14.4c31.8 0 58.9 10.4 81.3 31.2 22.2 20.9 33.4 46.1 33.4 75.6z"/></svg>