<?xml version="1.0" encoding="utf-8"?>
<!-- Generator: Adobe Illustrator 21.0.2, SVG Export Plug-In . SVG Version: 6.00 Build 0)  -->
<svg version="1.1" id="Layer_1" xmlns="http://www.w3.org/2000/svg" xmlns:xlink="http://www.w3.org/1999/xlink" x="0px" y="0px"
	 viewBox="0 0 1700 1700" style="enable-background:new 0 0 1700 1700;" xml:space="preserve">
<style type="text/css">
	.st0{fill:none;}
	.st1{fill:#006699;stroke:#FFFFFF;}
	.st2{fill:#FFFFFF;}
</style>
<rect id="backgroundrect" x="-174" y="-46" class="st0" width="2048" height="1792"/>
<g>
	<title>Layer 1</title>
	<path id="svg_3" marker-start="" marker-end="" marker-mid="" class="st1" d="M50,850C50,408,408,50,850,50s800,358,800,800
		s-358,800-800,800S50,1292,50,850z"/>
	<path id="svg_1" class="st2" d="M570.9,926.3c0-21-8-39-24.1-53.9c-16.1-14.9-35.4-22.4-58-22.4s-41.9,7.5-58,22.4
		c-16.1,14.9-24.1,32.9-24.1,53.9c0,21,8,39,24.1,53.9c16.1,14.9,35.4,22.4,58,22.4s41.9-7.5,58-22.4
		C562.9,965.3,570.9,947.3,570.9,926.3z M589.4,773.7h521.2l-45.7-170.3c-0.7-2.5-3.1-5.3-7.2-8.3c-4.1-3-7.7-4.5-10.8-4.5H653
		c-3.1,0-6.7,1.5-10.8,4.5c-4.1,3-6.5,5.8-7.2,8.3L589.4,773.7z M1293.2,926.3c0-21-8-39-24.1-53.9c-16.1-14.9-35.4-22.4-58-22.4
		c-22.6,0-41.9,7.5-58,22.4c-16.1,14.9-24.1,32.9-24.1,53.9c0,21,8,39,24.1,53.9c16.1,14.9,35.4,22.4,58,22.4
		c22.6,0,41.9-7.5,58-22.4C1285.2,965.3,1293.2,947.3,1293.2,926.3z M1375.3,880.5v183.1c0,4.5-1.5,8.1-4.6,11
		c-3.1,2.9-7,4.3-11.8,4.3h-49.2v61c0,25.4-9.6,47.1-28.7,64.9c-19.2,17.8-42.4,26.7-69.8,26.7s-50.6-8.9-69.8-26.7
		s-28.7-39.4-28.7-64.9v-61H587.3v61c0,25.4-9.6,47.1-28.7,64.9s-42.4,26.7-69.8,26.7c-27.4,0-50.6-8.9-69.8-26.7
		c-19.2-17.8-28.7-39.4-28.7-64.9v-61h-49.2c-4.8,0-8.7-1.4-11.8-4.3c-3.1-2.9-4.6-6.5-4.6-11V880.5c0-29.6,11.2-54.8,33.6-75.6
		c22.4-20.8,49.5-31.2,81.3-31.2H454l53.9-199.8c7.9-29.9,25.6-54.9,53.4-75.1c27.7-20.2,58.3-30.3,91.8-30.3h394
		c33.5,0,64.1,10.1,91.8,30.3c27.7,20.2,45.5,45.2,53.4,75.1l53.9,199.8h14.4c31.8,0,58.9,10.4,81.3,31.2
		C1364.1,825.8,1375.3,851,1375.3,880.5L1375.3,880.5z"/>
</g>
</svg>
