<?xml version="1.0" encoding="UTF-8" standalone="no"?>
<svg
   xmlns:dc="http://purl.org/dc/elements/1.1/"
   xmlns:cc="http://creativecommons.org/ns#"
   xmlns:rdf="http://www.w3.org/1999/02/22-rdf-syntax-ns#"
   xmlns:svg="http://www.w3.org/2000/svg"
   xmlns="http://www.w3.org/2000/svg"
   xmlns:sodipodi="http://sodipodi.sourceforge.net/DTD/sodipodi-0.dtd"
   xmlns:inkscape="http://www.inkscape.org/namespaces/inkscape"
   id="Layer_1"
   viewBox="0 0 1700 1700"
   version="1.1"
   sodipodi:docname="cash-machines.svg"
   inkscape:version="0.92.3 (2405546, 2018-03-11)">
  <metadata
     id="metadata11">
    <rdf:RDF>
      <cc:Work
         rdf:about="">
        <dc:format>image/svg+xml</dc:format>
        <dc:type
           rdf:resource="http://purl.org/dc/dcmitype/StillImage" />
      </cc:Work>
    </rdf:RDF>
  </metadata>
  <defs
     id="defs9" />
  <sodipodi:namedview
     pagecolor="#ffffff"
     bordercolor="#666666"
     borderopacity="1"
     objecttolerance="10"
     gridtolerance="10"
     guidetolerance="10"
     inkscape:pageopacity="0"
     inkscape:pageshadow="2"
     inkscape:window-width="1920"
     inkscape:window-height="1027"
     id="namedview7"
     showgrid="false"
     inkscape:zoom="0.13882353"
     inkscape:cx="850"
     inkscape:cy="850"
     inkscape:window-x="-8"
     inkscape:window-y="-8"
     inkscape:window-maximized="1"
     inkscape:current-layer="Layer_1" />
  <path
     id="rect3722"
     stroke-width=".941"
     d="M50 50h1600v1600H50z" />
  <path
     id="backgroundrect"
     fill="none"
     d="M-174-46h2048v1792H-174z" />
  <g
     id="g9" />
  <path
     id="path3777"
     d="m 1201.5254,1060.226 v 252.9604 q 0,9.6497 -6.2034,15.8531 -6.2034,6.2034 -15.853,6.2034 H 520.53104 q -9.64968,0 -15.85303,-6.2034 -6.20344,-6.2034 -6.20344,-15.8531 v -103.3898 q 0,-8.9605 6.54806,-15.5085 6.54796,-6.548 15.50841,-6.548 h 66.85883 V 923.75141 h -65.48028 q -9.64968,0 -15.85312,-6.54803 -6.20335,-6.54801 -6.20335,-15.50847 v -90.29378 q 0,-9.64972 6.20335,-15.85311 6.20344,-6.20339 15.85312,-6.20339 h 65.48028 V 635.63841 q 0,-117.8644 85.12425,-194.37288 85.12434,-76.50847 216.77403,-76.50847 127.51415,0 230.90395,86.15819 6.2034,5.51412 6.8926,14.12994 0.6893,8.61582 -4.8248,15.50847 l -70.9944,87.53673 q -6.2033,7.58193 -15.1638,8.27118 -8.9604,1.37854 -15.8531,-4.82485 -3.4463,-3.44633 -17.9209,-13.09604 -14.47458,-9.64972 -47.55938,-22.0565 -33.0847,-12.40679 -64.10162,-12.40679 -58.58761,0 -94.42942,32.39549 -35.84181,32.39548 -35.84181,84.77966 v 148.19209 h 210.22598 q 8.96045,0 15.50851,6.20339 6.54805,6.20339 6.54805,15.85311 v 90.29378 q 0,8.96046 -6.54805,15.50847 -6.54806,6.54803 -15.50851,6.54803 H 760.39547 V 1184.9831 H 1045.7514 V 1060.226 q 0,-8.9605 6.2034,-15.5085 6.2034,-6.548 15.8531,-6.548 h 111.6611 q 9.6496,0 15.853,6.548 6.2034,6.548 6.2034,15.5085 z"
     inkscape:connector-curvature="0"
     style="fill:#ffffff;stroke-width:0.68926555" />
</svg>
