<svg xmlns="http://www.w3.org/2000/svg" id="Layer_1" viewBox="0 0 1700 1700"><path id="rect3722" stroke-width=".941" d="M50 50h1600v1600H50z"/><path id="backgroundrect" fill="none" d="M-174-46h2048v1792H-174z"/><g id="g9"><path id="svg_1" fill="#fff" d="M753.9 982.6h192.2v-49.7H882v-232h-57l-74.1 70.9 38.5 41.4c14-12.8 23.2-22.6 27.5-29.5h1v149.1h-64.1l.1 49.8zM1010.2 850c0 24.2-3.5 48.7-10.5 73.5-7 24.9-16.9 48-29.8 69.4-12.8 21.4-29.8 38.8-50.8 52.3s-44 20.2-69.1 20.2-48-6.7-69.1-20.2c-21-13.5-38-30.9-50.8-52.3-12.8-21.4-22.8-44.5-29.8-69.4s-10.5-49.4-10.5-73.5c0-24.2 3.5-48.7 10.5-73.5s16.9-48 29.8-69.4c12.8-21.4 29.8-38.8 50.8-52.3s44-20.2 69.1-20.2c25 0 48 6.7 69.1 20.2s38 30.9 50.8 52.3c12.8 21.4 22.8 44.5 29.8 69.4 7 24.8 10.5 49.3 10.5 73.5zm256.2 132.6V717.4c-35.4 0-65.6-12.9-90.6-38.8s-37.5-57.1-37.5-93.7H561.7c0 36.6-12.5 67.8-37.5 93.7s-55.2 38.8-90.6 38.8v265.1c35.4 0 65.6 12.9 90.6 38.8s37.5 57.1 37.5 93.7h576.6c0-36.6 12.5-67.8 37.5-93.7 25.1-25.8 55.2-38.7 90.6-38.7zm64.1-430.9v596.6c0 9-3.2 16.7-9.5 23.3-6.3 6.6-13.8 9.8-22.5 9.8H401.6c-8.7 0-16.2-3.3-22.5-9.8-6.3-6.6-9.5-14.3-9.5-23.3V551.7c0-9 3.2-16.7 9.5-23.3s13.8-9.8 22.5-9.8h896.9c8.7 0 16.2 3.3 22.5 9.8 6.3 6.6 9.5 14.3 9.5 23.3z"/></g></svg>