<?xml version="1.0" encoding="UTF-8" standalone="no"?>
<!-- Generator: Adobe Illustrator 21.0.2, SVG Export Plug-In . SVG Version: 6.00 Build 0)  -->

<svg
   xmlns:dc="http://purl.org/dc/elements/1.1/"
   xmlns:cc="http://creativecommons.org/ns#"
   xmlns:rdf="http://www.w3.org/1999/02/22-rdf-syntax-ns#"
   xmlns:svg="http://www.w3.org/2000/svg"
   xmlns="http://www.w3.org/2000/svg"
   xmlns:sodipodi="http://sodipodi.sourceforge.net/DTD/sodipodi-0.dtd"
   xmlns:inkscape="http://www.inkscape.org/namespaces/inkscape"
   version="1.1"
   id="Layer_1"
   x="0px"
   y="0px"
   viewBox="0 0 1700 1700"
   style="enable-background:new 0 0 1700 1700;"
   xml:space="preserve"
   sodipodi:docname="food-and-drink.svg"
   inkscape:version="0.92.3 (2405546, 2018-03-11)"><metadata
   id="metadata16"><rdf:RDF><cc:Work
       rdf:about=""><dc:format>image/svg+xml</dc:format><dc:type
         rdf:resource="http://purl.org/dc/dcmitype/StillImage" /></cc:Work></rdf:RDF></metadata><defs
   id="defs14" /><sodipodi:namedview
   pagecolor="#ffffff"
   bordercolor="#666666"
   borderopacity="1"
   objecttolerance="10"
   gridtolerance="10"
   guidetolerance="10"
   inkscape:pageopacity="0"
   inkscape:pageshadow="2"
   inkscape:window-width="1920"
   inkscape:window-height="1027"
   id="namedview12"
   showgrid="false"
   inkscape:zoom="0.13882353"
   inkscape:cx="850"
   inkscape:cy="850"
   inkscape:window-x="-8"
   inkscape:window-y="-8"
   inkscape:window-maximized="1"
   inkscape:current-layer="Layer_1" />
<style
   type="text/css"
   id="style2">
	.st0{fill:none;}
	.st1{fill:#F18626;stroke:#FFFFFF;}
	.st2{fill:#FFFFFF;}
</style>
<rect
   id="rect3722"
   width="1600"
   height="1600"
   x="50"
   y="50"
   style="stroke-width:0.94117653" /><rect
   id="backgroundrect"
   x="-174"
   y="-46"
   class="st0"
   width="2048"
   height="1792" />
<g
   id="g9">
	<title
   id="title5">Layer 1</title>
	
	<path
   id="svg_1"
   class="st2"
   d="M1247.2,675.5c0-29.1-10.1-53.8-30.2-74.2c-20.1-20.4-44.6-30.5-73.4-30.5H1109v209.4h34.5   c28.8,0,53.2-10.2,73.4-30.5C1237.1,729.3,1247.2,704.6,1247.2,675.5z M349.2,1094.3h967.1c0,38.5-13.5,71.4-40.5,98.7   c-27,27.3-59.5,40.9-97.7,40.9H487.3c-38.1,0-70.7-13.6-97.7-40.9C362.7,1165.7,349.2,1132.8,349.2,1094.3L349.2,1094.3z    M1350.8,675.5c0,57.8-20.2,107.1-60.7,148s-89.3,61.3-146.5,61.3H1109v17.4c0,33.4-11.9,62.2-35.6,86.2s-52.2,36-85.3,36H608.2   c-33.1,0-61.5-12-85.3-36s-35.6-52.7-35.6-86.2V501c0-9.5,3.4-17.6,10.3-24.5s14.9-10.4,24.3-10.4h621.7   c57.2,0,106,20.4,146.5,61.3C1330.6,568.4,1350.8,617.7,1350.8,675.5L1350.8,675.5z" />
</g>
</svg>