<svg xmlns="http://www.w3.org/2000/svg" id="Layer_1" viewBox="0 0 1700 1700"><path id="rect3722" stroke-width=".941" d="M50 50h1600v1600H50z"/><path id="backgroundrect" fill="none" d="M-174-46h2048v1792H-174z"/><g id="g9"><path id="svg_1" fill="#fff" d="M1247.2 675.5c0-29.1-10.1-53.8-30.2-74.2-20.1-20.4-44.6-30.5-73.4-30.5H1109v209.4h34.5c28.8 0 53.2-10.2 73.4-30.5 20.2-20.4 30.3-45.1 30.3-74.2zm-898 418.8h967.1c0 38.5-13.5 71.4-40.5 98.7-27 27.3-59.5 40.9-97.7 40.9H487.3c-38.1 0-70.7-13.6-97.7-40.9-26.9-27.3-40.4-60.2-40.4-98.7zm1001.6-418.8c0 57.8-20.2 107.1-60.7 148s-89.3 61.3-146.5 61.3H1109v17.4c0 33.4-11.9 62.2-35.6 86.2s-52.2 36-85.3 36H608.2c-33.1 0-61.5-12-85.3-36s-35.6-52.7-35.6-86.2V501c0-9.5 3.4-17.6 10.3-24.5s14.9-10.4 24.3-10.4h621.7c57.2 0 106 20.4 146.5 61.3 40.5 41 60.7 90.3 60.7 148.1z"/></g></svg>