<svg xmlns="http://www.w3.org/2000/svg" id="Layer_1" viewBox="0 0 1700 1700"><path id="rect3722" stroke-width=".941" d="M50 50h1600v1600H50z"/><path id="backgroundrect" fill="none" d="M-46-46h1792v1792H-46z"/><g id="g8"/><g id="g12"><path id="path10" fill="#fff" stroke="#000" stroke-miterlimit="10" d="M694.3 1191.5H735V897.4h-40.7c-22.5 0-40.7-18.2-40.7-40.7v-97.3c0-22.5 18.2-40.7 40.7-40.7h228c22.5 0 40.7 18.2 40.7 40.7v432.1h40.7c22.5 0 40.7 18.2 40.7 40.7v97.3c0 22.5-18.2 40.7-40.7 40.7H694.3c-22.5 0-40.7-18.2-40.7-40.7v-97.3c0-22.5 18.2-40.7 40.7-40.7zM849 327.8c-81 0-146.6 65.6-146.6 146.6S768 621 849 621s146.6-65.6 146.6-146.6S930 327.8 849 327.8z"/></g></svg>