<?xml version="1.0" encoding="UTF-8" standalone="no"?>
<!-- Generator: Adobe Illustrator 22.0.1, SVG Export Plug-In . SVG Version: 6.00 Build 0)  -->

<svg
   xmlns:dc="http://purl.org/dc/elements/1.1/"
   xmlns:cc="http://creativecommons.org/ns#"
   xmlns:rdf="http://www.w3.org/1999/02/22-rdf-syntax-ns#"
   xmlns:svg="http://www.w3.org/2000/svg"
   xmlns="http://www.w3.org/2000/svg"
   xmlns:sodipodi="http://sodipodi.sourceforge.net/DTD/sodipodi-0.dtd"
   xmlns:inkscape="http://www.inkscape.org/namespaces/inkscape"
   version="1.1"
   id="Layer_1"
   x="0px"
   y="0px"
   viewBox="0 0 1700 1700"
   style="enable-background:new 0 0 1700 1700;"
   xml:space="preserve"
   sodipodi:docname="information-points.svg"
   inkscape:version="0.92.3 (2405546, 2018-03-11)"><metadata
   id="metadata19"><rdf:RDF><cc:Work
       rdf:about=""><dc:format>image/svg+xml</dc:format><dc:type
         rdf:resource="http://purl.org/dc/dcmitype/StillImage" /></cc:Work></rdf:RDF></metadata><defs
   id="defs17" /><sodipodi:namedview
   pagecolor="#ffffff"
   bordercolor="#666666"
   borderopacity="1"
   objecttolerance="10"
   gridtolerance="10"
   guidetolerance="10"
   inkscape:pageopacity="0"
   inkscape:pageshadow="2"
   inkscape:window-width="1920"
   inkscape:window-height="1027"
   id="namedview15"
   showgrid="false"
   inkscape:zoom="0.13882353"
   inkscape:cx="850"
   inkscape:cy="850"
   inkscape:window-x="-8"
   inkscape:window-y="-8"
   inkscape:window-maximized="1"
   inkscape:current-layer="Layer_1" />
<style
   type="text/css"
   id="style2">
	.st0{fill:none;}
	.st1{fill:#009999;}
	.st2{fill:#FFFFFF;stroke:#000000;stroke-miterlimit:10;}
</style>
<rect
   id="rect3722"
   width="1600"
   height="1600"
   x="50"
   y="50"
   style="stroke-width:0.94117653" /><rect
   id="backgroundrect"
   x="-46"
   y="-46"
   class="st0"
   width="1792"
   height="1792" />
<g
   id="g8">
	<title
   id="title5">Layer 1</title>
	
</g>
<g
   id="g12">
	<path
   class="st2"
   d="M694.3,1191.5H735V897.4h-40.7c-22.5,0-40.7-18.2-40.7-40.7v-97.3c0-22.5,18.2-40.7,40.7-40.7h228   c22.5,0,40.7,18.2,40.7,40.7v432.1h40.7c22.5,0,40.7,18.2,40.7,40.7v97.3c0,22.5-18.2,40.7-40.7,40.7H694.3   c-22.5,0-40.7-18.2-40.7-40.7v-97.3C653.6,1209.7,671.8,1191.5,694.3,1191.5z M849,327.8c-81,0-146.6,65.6-146.6,146.6   S768,621,849,621s146.6-65.6,146.6-146.6S930,327.8,849,327.8z"
   id="path10" />
</g>
</svg>