<svg xmlns="http://www.w3.org/2000/svg" id="Layer_1" viewBox="0 0 1700 1700"><path id="rect3722" stroke-width=".941" d="M50 50h1600v1600H50z"/><path id="backgroundrect" fill="none" d="M-46-46h1792v1792H-46z"/><g id="g9"><path id="svg_1" fill="#fff" d="M1302.3 723.3v402.5c0 22.3-7.9 41.4-23.7 57.3-15.8 15.9-34.8 23.8-57 23.8h-743c-22.2 0-41.2-7.9-57-23.8-15.8-15.9-23.7-35-23.7-57.3V723.3c14.8 16.6 31.8 31.3 51 44.1 121.8 83.1 205.4 141.4 250.9 174.9 19.2 14.2 34.7 25.3 46.7 33.2s27.8 16.1 47.7 24.3 38.4 12.4 55.5 12.4h1c17.2 0 35.7-4.1 55.5-12.4 19.9-8.3 35.8-16.4 47.7-24.3 11.9-7.9 27.5-19 46.7-33.2 57.2-41.6 141-99.9 251.4-174.9 19-13.2 35.8-27.9 50.3-44.1zm0-149.1c0 26.7-8.2 52.2-24.7 76.6-16.5 24.3-37 45.1-61.6 62.4-126.5 88.2-205.3 143.1-236.2 164.8-3.4 2.4-10.5 7.5-21.5 15.5-10.9 7.9-20 14.4-27.3 19.3-7.2 4.9-16 10.4-26.2 16.5-10.3 6.1-19.9 10.6-29 13.7-9.1 3-17.5 4.6-25.2 4.6h-1c-7.7 0-16.2-1.5-25.2-4.6-9.1-3-18.8-7.6-29-13.7s-19-11.6-26.2-16.5-16.3-11.3-27.3-19.3c-10.9-7.9-18.1-13.1-21.5-15.5-30.6-21.6-74.7-52.5-132.3-92.5-57.5-40-92-64.1-103.5-72.2-20.9-14.2-40.6-33.7-59.1-58.6-18.5-24.8-27.8-47.9-27.8-69.2 0-26.4 7-48.3 20.9-65.9 14-17.6 33.9-26.4 59.8-26.4h743c21.9 0 40.8 7.9 56.8 23.8s24.1 34.9 24.1 57.2z"/></g></svg>