<?xml version="1.0" encoding="utf-8"?>
<!-- Generator: Adobe Illustrator 21.0.2, SVG Export Plug-In . SVG Version: 6.00 Build 0)  -->
<svg version="1.1" id="Layer_1" xmlns="http://www.w3.org/2000/svg" xmlns:xlink="http://www.w3.org/1999/xlink" x="0px" y="0px"
	 viewBox="0 0 1700 1700" style="enable-background:new 0 0 1700 1700;" xml:space="preserve">
<style type="text/css">
	.st0{fill:none;}
	.st1{fill:#009999;}
	.st2{fill:#FFFFFF;}
</style>
<rect id="backgroundrect" x="-46" y="-46" class="st0" width="1792" height="1792"/>
<g>
	<title>Layer 1</title>
	<path id="svg_2" marker-start="" marker-end="" marker-mid="" class="st1" d="M50,850C50,408,408,50,850,50s800,358,800,800
		s-358,800-800,800S50,1292,50,850z"/>
	<path id="svg_1" class="st2" d="M583.8,1201.3h532.5v-140.5H583.8L583.8,1201.3L583.8,1201.3z M583.8,850h532.5V639.2h-95.1
		c-15.8,0-29.3-5.1-40.4-15.4c-11.1-10.2-16.6-22.7-16.6-37.3v-87.8H583.8V850z M1268.4,885.1c0-9.5-3.8-17.7-11.3-24.7
		s-16.4-10.4-26.7-10.4c-10.3,0-19.2,3.5-26.7,10.4c-7.5,7-11.3,15.2-11.3,24.7c0,9.5,3.8,17.7,11.3,24.7c7.5,7,16.4,10.4,26.7,10.4
		c10.3,0,19.2-3.5,26.7-10.4C1264.6,902.9,1268.4,894.6,1268.4,885.1z M1344.5,885.1v228.4c0,4.8-1.9,8.9-5.6,12.4
		c-3.8,3.5-8.2,5.2-13.4,5.2h-133.1v87.8c0,14.6-5.5,27.1-16.6,37.3c-11.1,10.2-24.6,15.4-40.4,15.4H564.7
		c-15.8,0-29.3-5.1-40.4-15.4c-11.1-10.2-16.6-22.7-16.6-37.3v-87.8H374.6c-5.2,0-9.6-1.7-13.4-5.2c-3.8-3.5-5.6-7.6-5.6-12.4V885.1
		c0-28.9,11.2-53.7,33.6-74.4s49.2-31,80.5-31h38V481.1c0-14.6,5.5-27.1,16.6-37.3c11.1-10.2,24.6-15.4,40.4-15.4h399.4
		c15.8,0,33.3,3.7,52.3,11c19,7.3,34.1,16.1,45.2,26.4l90.3,83.4c11.1,10.2,20.6,24.2,28.5,41.7c7.9,17.6,11.9,33.7,11.9,48.3v140.5
		h38c31.3,0,58.1,10.3,80.5,31C1333.3,831.4,1344.5,856.2,1344.5,885.1L1344.5,885.1z"/>
</g>
</svg>
