<svg xmlns="http://www.w3.org/2000/svg" id="Layer_1" viewBox="0 0 1700 1700"><path id="rect3722" stroke-width=".941" d="M50 50h1600v1600H50z"/><path id="backgroundrect" fill="none" d="M-46-46h1792v1792H-46z"/><g id="g8"/><g id="g12"><path id="path10" fill="#fff" stroke="#000" stroke-miterlimit="10" d="M1344.4 908.6c24.7 0 44.7 20 44.7 44.7v253.1h-178.7v-119.1H495.6v119.1H317V536.3c0-24.7 20-44.7 44.7-44.7H451c24.7 0 44.7 20 44.7 44.7v372.3h848.7zM674.3 551.2c-82.2 0-148.9 66.7-148.9 148.9S592.1 849 674.3 849s148.9-66.7 148.9-148.9-66.6-148.9-148.9-148.9zM1389 789.4c0-98.7-80-178.7-178.7-178.7H897.7c-24.7 0-44.7 20-44.7 44.7V849h536v-59.6z"/></g></svg>