<svg xmlns="http://www.w3.org/2000/svg" id="Layer_1" viewBox="0 0 1700 1700"><path id="rect3722" stroke-width=".941" d="M-1650 50H-50v1600h-1600z" transform="scale(-1 1)"/><path id="backgroundrect" fill="none" d="M-174-46h2048v1792H-174z"/><g id="g9"><path id="svg_1" fill="#fff" d="M1265 791.8c16.4 0 30.3 5.7 41.9 17 11.6 11.4 17.4 25.1 17.4 41.1 0 16.1-5.8 29.8-17.4 41.1-11.6 11.4-25.6 17-41.9 17h-6.9l-53.3 301c-2.5 13.9-9.3 25.5-20.4 34.6s-23.8 13.6-38 13.6H553.6c-14.2 0-26.9-4.5-38-13.6-11.1-9.1-17.9-20.6-20.4-34.6l-53.3-301H435c-16.4 0-30.3-5.7-41.9-17-11.6-11.4-17.4-25.1-17.4-41.1 0-16.1 5.8-29.8 17.4-41.1 11.6-11.4 25.6-17 41.9-17h830zm-664.7 363.7c8-.6 14.7-4 20.1-10.2 5.4-6.2 7.8-13.3 7.2-21.1L612.8 935c-.6-7.9-4.1-14.5-10.4-19.8-6.3-5.3-13.5-7.7-21.5-7-8 .6-14.7 4-20.1 10.2-5.4 6.2-7.8 13.3-7.2 21.1l14.8 189.1c.6 7.6 3.8 13.9 9.5 19.1s12.4 7.7 20.1 7.7l2.3.1zm190.4-29.1V937.3c0-7.9-2.9-14.7-8.8-20.5-5.9-5.8-12.8-8.6-20.8-8.6s-15 2.9-20.8 8.6c-5.9 5.8-8.8 12.6-8.8 20.5v189.1c0 7.9 2.9 14.7 8.8 20.5 5.9 5.8 12.8 8.6 20.8 8.6s15-2.9 20.8-8.6 8.8-12.6 8.8-20.5zm177.9 0V937.3c0-7.9-2.9-14.7-8.8-20.5-5.9-5.8-12.8-8.6-20.8-8.6s-15 2.9-20.8 8.6c-5.9 5.8-8.8 12.6-8.8 20.5v189.1c0 7.9 2.9 14.7 8.8 20.5 5.9 5.8 12.8 8.6 20.8 8.6s15-2.9 20.8-8.6 8.8-12.6 8.8-20.5zm163 2.3l14.8-189.1c.6-7.9-1.8-14.9-7.2-21.1s-12.1-9.6-20.1-10.2c-8-.6-15.2 1.7-21.5 7s-9.8 11.9-10.4 19.8l-14.8 189.1c-.6 7.9 1.8 14.9 7.2 21.1 5.4 6.2 12.1 9.6 20.1 10.2h2.3c7.7 0 14.4-2.6 20.1-7.7 5.7-5.2 8.9-11.5 9.5-19.1zM596.2 575.4l-43.1 187.3H492l46.8-200.5c5.9-26.7 19.6-48.4 41.2-65.2 21.6-16.8 46.3-25.2 74.1-25.2h77.4c0-7.9 2.9-14.7 8.8-20.5 5.9-5.8 12.8-8.6 20.8-8.6H939c8 0 15 2.9 20.8 8.6 5.9 5.8 8.8 12.6 8.8 20.5h77.4c27.8 0 52.5 8.4 74.1 25.2 21.6 16.8 35.4 38.6 41.2 65.2l46.8 200.5H1147l-43.1-187.3c-3.4-13.3-10.4-24.2-21.1-32.7S1059.9 530 1046 530h-77.4c0 7.9-2.9 14.7-8.8 20.5-5.9 5.8-12.8 8.6-20.8 8.6H761.1c-8 0-15-2.9-20.8-8.6-5.9-5.8-8.8-12.6-8.8-20.5h-77.4c-13.9 0-26.2 4.2-36.8 12.7-10.7 8.5-17.7 19.4-21.1 32.7z"/></g></svg>