<?xml version="1.0" encoding="UTF-8" standalone="no"?>
<!-- Generator: Adobe Illustrator 21.0.2, SVG Export Plug-In . SVG Version: 6.00 Build 0)  -->

<svg
   xmlns:dc="http://purl.org/dc/elements/1.1/"
   xmlns:cc="http://creativecommons.org/ns#"
   xmlns:rdf="http://www.w3.org/1999/02/22-rdf-syntax-ns#"
   xmlns:svg="http://www.w3.org/2000/svg"
   xmlns="http://www.w3.org/2000/svg"
   xmlns:sodipodi="http://sodipodi.sourceforge.net/DTD/sodipodi-0.dtd"
   xmlns:inkscape="http://www.inkscape.org/namespaces/inkscape"
   version="1.1"
   id="Layer_1"
   x="0px"
   y="0px"
   viewBox="0 0 1700 1700"
   style="enable-background:new 0 0 1700 1700;"
   xml:space="preserve"
   sodipodi:docname="shuttle-bus.svg"
   inkscape:version="0.92.3 (2405546, 2018-03-11)"><metadata
   id="metadata16"><rdf:RDF><cc:Work
       rdf:about=""><dc:format>image/svg+xml</dc:format><dc:type
         rdf:resource="http://purl.org/dc/dcmitype/StillImage" /></cc:Work></rdf:RDF></metadata><defs
   id="defs14" /><sodipodi:namedview
   pagecolor="#ffffff"
   bordercolor="#666666"
   borderopacity="1"
   objecttolerance="10"
   gridtolerance="10"
   guidetolerance="10"
   inkscape:pageopacity="0"
   inkscape:pageshadow="2"
   inkscape:window-width="1920"
   inkscape:window-height="1027"
   id="namedview12"
   showgrid="false"
   inkscape:zoom="0.13882353"
   inkscape:cx="850"
   inkscape:cy="850"
   inkscape:window-x="-8"
   inkscape:window-y="-8"
   inkscape:window-maximized="1"
   inkscape:current-layer="Layer_1" />
<style
   type="text/css"
   id="style2">
	.st0{fill:#E3000F;}
	.st2{fill:#FFFFFF;}
</style>
<rect
   id="rect3722"
   width="1600"
   height="1600"
   x="50"
   y="50"
   style="stroke-width:0.94117653" /><rect
   id="backgroundrect"
   y="-92"
   class="st0"
   width="1792"
   height="1792" />
<g
   id="g9">
	<title
   id="title5">Layer 1</title>

	<path
   id="svg_1"
   class="st2"
   d="M653.1,1011.1c0-17.8-6.4-33-19.2-45.6c-12.8-12.6-28.3-18.9-46.4-18.9c-18.1,0-33.6,6.3-46.4,18.9   c-12.8,12.6-19.2,27.8-19.2,45.6c0,17.8,6.4,33,19.2,45.6c12.8,12.6,28.3,18.9,46.4,18.9c18.1,0,33.6-6.3,46.4-18.9   C646.6,1044.1,653.1,1028.9,653.1,1011.1z M1178.2,1011.1c0-17.8-6.4-33-19.2-45.6c-12.8-12.6-28.3-18.9-46.4-18.9   s-33.6,6.3-46.4,18.9c-12.8,12.6-19.2,27.8-19.2,45.6c0,17.8,6.4,33,19.2,45.6c12.8,12.6,28.3,18.9,46.4,18.9s33.6-6.3,46.4-18.9   C1171.8,1044.1,1178.2,1028.9,1178.2,1011.1z M1154.7,811.7l-36.9-193.3c-1.7-7.7-5.6-14-11.5-18.9c-6-4.9-12.9-7.3-20.8-7.3H614.6   c-7.9,0-14.8,2.4-20.8,7.3c-6,4.9-9.8,11.2-11.5,18.9l-36.9,193.3c-1.7,10.1,0.7,19,7.2,26.7c6.5,7.7,14.9,11.6,25.1,11.6h544.7   c10.3,0,18.6-3.9,25.1-11.6C1154,830.7,1156.4,821.8,1154.7,811.7z M1038.7,503.7c0-6.7-2.4-12.4-7.2-17.1c-4.8-4.7-10.6-7-17.4-7   H685.9c-6.8,0-12.7,2.3-17.4,7c-4.8,4.7-7.2,10.4-7.2,17.1c0,6.7,2.4,12.4,7.2,17.1c4.8,4.7,10.6,7,17.4,7h328.2   c6.8,0,12.7-2.3,17.4-7C1036.3,516.1,1038.7,510.4,1038.7,503.7z M1243.9,868.6v303.6h-65.6v64.4c0,17.8-6.4,33-19.2,45.6   c-12.8,12.6-28.3,18.9-46.4,18.9s-33.6-6.3-46.4-18.9c-12.8-12.6-19.2-27.8-19.2-45.6v-64.4H653.1v64.4c0,17.8-6.4,33-19.2,45.6   c-12.8,12.6-28.3,18.9-46.4,18.9c-18.1,0-33.6-6.3-46.4-18.9c-12.8-12.6-19.2-27.8-19.2-45.6v-64.4h-65.6V868.6   c0-37.6,4.3-75,12.8-112.3l52.8-228.5c3.1-26.2,19.7-49.2,50-69c30.3-19.8,69.6-34.7,118-44.8C738.1,404,791.5,399,850,399   c58.5,0,111.9,5,160.3,15.1c48.4,10.1,87.7,25,118,44.8c30.3,19.8,46.9,42.8,50,69l53.9,228.5C1240,790.6,1243.9,828,1243.9,868.6   L1243.9,868.6z" />
</g>
</svg>