<svg xmlns="http://www.w3.org/2000/svg" viewBox="0 0 1700 1700"><path stroke-width=".941" d="M50 50h1600v1600H50z"/><path fill="#e3000f" d="M0-92h1792v1792H0z"/><path fill="#fff" d="M653.1 1011.1c0-17.8-6.4-33-19.2-45.6-12.8-12.6-28.3-18.9-46.4-18.9-18.1 0-33.6 6.3-46.4 18.9-12.8 12.6-19.2 27.8-19.2 45.6s6.4 33 19.2 45.6c12.8 12.6 28.3 18.9 46.4 18.9 18.1 0 33.6-6.3 46.4-18.9 12.7-12.6 19.2-27.8 19.2-45.6zm525.1 0c0-17.8-6.4-33-19.2-45.6-12.8-12.6-28.3-18.9-46.4-18.9s-33.6 6.3-46.4 18.9c-12.8 12.6-19.2 27.8-19.2 45.6s6.4 33 19.2 45.6c12.8 12.6 28.3 18.9 46.4 18.9s33.6-6.3 46.4-18.9c12.8-12.6 19.2-27.8 19.2-45.6zm-23.5-199.4l-36.9-193.3c-1.7-7.7-5.6-14-11.5-18.9-6-4.9-12.9-7.3-20.8-7.3H614.6c-7.9 0-14.8 2.4-20.8 7.3s-9.8 11.2-11.5 18.9l-36.9 193.3c-1.7 10.1.7 19 7.2 26.7 6.5 7.7 14.9 11.6 25.1 11.6h544.7c10.3 0 18.6-3.9 25.1-11.6 6.5-7.7 8.9-16.6 7.2-26.7zm-116-308c0-6.7-2.4-12.4-7.2-17.1-4.8-4.7-10.6-7-17.4-7H685.9c-6.8 0-12.7 2.3-17.4 7-4.8 4.7-7.2 10.4-7.2 17.1 0 6.7 2.4 12.4 7.2 17.1 4.8 4.7 10.6 7 17.4 7h328.2c6.8 0 12.7-2.3 17.4-7 4.8-4.7 7.2-10.4 7.2-17.1zm205.2 364.9v303.6h-65.6v64.4c0 17.8-6.4 33-19.2 45.6-12.8 12.6-28.3 18.9-46.4 18.9s-33.6-6.3-46.4-18.9c-12.8-12.6-19.2-27.8-19.2-45.6v-64.4h-394v64.4c0 17.8-6.4 33-19.2 45.6-12.8 12.6-28.3 18.9-46.4 18.9-18.1 0-33.6-6.3-46.4-18.9-12.8-12.6-19.2-27.8-19.2-45.6v-64.4h-65.6V868.6c0-37.6 4.3-75 12.8-112.3l52.8-228.5c3.1-26.2 19.7-49.2 50-69 30.3-19.8 69.6-34.7 118-44.8 48.2-10 101.6-15 160.1-15s111.9 5 160.3 15.1c48.4 10.1 87.7 25 118 44.8 30.3 19.8 46.9 42.8 50 69l53.9 228.5c7.8 34.2 11.7 71.6 11.7 112.2z"/></svg>