<?xml version="1.0" encoding="utf-8"?>
<!-- Generator: Adobe Illustrator 22.0.1, SVG Export Plug-In . SVG Version: 6.00 Build 0)  -->
<svg version="1.1" id="Layer_1" xmlns="http://www.w3.org/2000/svg" xmlns:xlink="http://www.w3.org/1999/xlink" x="0px" y="0px"
	 viewBox="0 0 1700 1700" style="enable-background:new 0 0 1700 1700;" xml:space="preserve">
<style type="text/css">
	.st0{fill:none;}
	.st1{fill:#666666;stroke:#FFFFFF;}
	.st2{fill:#FFFFFF;}
</style>
<rect id="backgroundrect" y="-92" class="st0" width="1792" height="1792"/>
<g>
	<title>Layer 1</title>
	<path id="svg_3" marker-end="" marker-start="" marker-mid="" class="st1" d="M50,850C50,408,408,50,850,50s800,358,800,800
		s-358,800-800,800S50,1292,50,850z"/>
	<path id="svg_1" class="st2" d="M653.1,1011.1c0-17.8-6.4-33-19.2-45.6s-28.3-18.9-46.4-18.9c-18.1,0-33.6,6.3-46.4,18.9
		c-12.8,12.6-19.2,27.8-19.2,45.6c0,17.8,6.4,33,19.2,45.6s28.3,18.9,46.4,18.9c18.1,0,33.6-6.3,46.4-18.9
		C646.6,1044.1,653.1,1028.9,653.1,1011.1z M1178.2,1011.1c0-17.8-6.4-33-19.2-45.6c-12.8-12.6-28.3-18.9-46.4-18.9
		s-33.6,6.3-46.4,18.9c-12.8,12.6-19.2,27.8-19.2,45.6c0,17.8,6.4,33,19.2,45.6c12.8,12.6,28.3,18.9,46.4,18.9s33.6-6.3,46.4-18.9
		S1178.2,1028.9,1178.2,1011.1z M1154.7,811.7l-36.9-193.3c-1.7-7.7-5.6-14-11.5-18.9c-6-4.9-12.9-7.3-20.8-7.3H614.6
		c-7.9,0-14.8,2.4-20.8,7.3c-6,4.9-9.8,11.2-11.5,18.9l-36.9,193.3c-1.7,10.1,0.7,19,7.2,26.7s14.9,11.6,25.1,11.6h544.7
		c10.3,0,18.6-3.9,25.1-11.6C1154,830.7,1156.4,821.8,1154.7,811.7z M1038.7,503.7c0-6.7-2.4-12.4-7.2-17.1c-4.8-4.7-10.6-7-17.4-7
		H685.9c-6.8,0-12.7,2.3-17.4,7c-4.8,4.7-7.2,10.4-7.2,17.1s2.4,12.4,7.2,17.1c4.8,4.7,10.6,7,17.4,7h328.2c6.8,0,12.7-2.3,17.4-7
		C1036.3,516.1,1038.7,510.4,1038.7,503.7z M1243.9,868.6v303.6h-65.6v64.4c0,17.8-6.4,33-19.2,45.6c-12.8,12.6-28.3,18.9-46.4,18.9
		s-33.6-6.3-46.4-18.9s-19.2-27.8-19.2-45.6v-64.4h-394v64.4c0,17.8-6.4,33-19.2,45.6s-28.3,18.9-46.4,18.9
		c-18.1,0-33.6-6.3-46.4-18.9c-12.8-12.6-19.2-27.8-19.2-45.6v-64.4h-65.6V868.6c0-37.6,4.3-75,12.8-112.3l52.8-228.5
		c3.1-26.2,19.7-49.2,50-69s69.6-34.7,118-44.8c48.2-10,101.6-15,160.1-15s111.9,5,160.3,15.1s87.7,25,118,44.8s46.9,42.8,50,69
		l53.9,228.5C1240,790.6,1243.9,828,1243.9,868.6L1243.9,868.6z"/>
</g>
</svg>
