<?xml version="1.0" encoding="UTF-8" standalone="no"?>
<!-- Generator: Adobe Illustrator 21.0.2, SVG Export Plug-In . SVG Version: 6.00 Build 0)  -->

<svg
   xmlns:dc="http://purl.org/dc/elements/1.1/"
   xmlns:cc="http://creativecommons.org/ns#"
   xmlns:rdf="http://www.w3.org/1999/02/22-rdf-syntax-ns#"
   xmlns:svg="http://www.w3.org/2000/svg"
   xmlns="http://www.w3.org/2000/svg"
   xmlns:sodipodi="http://sodipodi.sourceforge.net/DTD/sodipodi-0.dtd"
   xmlns:inkscape="http://www.inkscape.org/namespaces/inkscape"
   version="1.1"
   id="Layer_1"
   x="0px"
   y="0px"
   viewBox="0 0 1700 1700"
   style="enable-background:new 0 0 1700 1700;"
   xml:space="preserve"
   sodipodi:docname="study-spaces.svg"
   inkscape:version="0.92.3 (2405546, 2018-03-11)"><metadata
   id="metadata16"><rdf:RDF><cc:Work
       rdf:about=""><dc:format>image/svg+xml</dc:format><dc:type
         rdf:resource="http://purl.org/dc/dcmitype/StillImage" /></cc:Work></rdf:RDF></metadata><defs
   id="defs14" /><sodipodi:namedview
   pagecolor="#ffffff"
   bordercolor="#666666"
   borderopacity="1"
   objecttolerance="10"
   gridtolerance="10"
   guidetolerance="10"
   inkscape:pageopacity="0"
   inkscape:pageshadow="2"
   inkscape:window-width="1920"
   inkscape:window-height="1027"
   id="namedview12"
   showgrid="false"
   inkscape:zoom="0.13882353"
   inkscape:cx="850"
   inkscape:cy="850"
   inkscape:window-x="-8"
   inkscape:window-y="-8"
   inkscape:window-maximized="1"
   inkscape:current-layer="Layer_1" />
<style
   type="text/css"
   id="style2">
	.st0{fill:none;}
	.st1{fill:#CC3399;}
	.st2{fill:#FFFFFF;}
</style>
<rect
   id="rect3722"
   width="1600"
   height="1600"
   x="50"
   y="50"
   style="stroke-width:0.94117653" />
<g
   id="g9">
	<title
   id="title5">Layer 1</title>
	
	<path
   id="svg_1"
   class="st2"
   d="M1284.6,635.7c14.4,19.5,17.6,41.5,9.7,66.1l-148.1,464.5c-6.8,21.9-20.6,40.2-41.2,55.1   c-20.6,14.9-42.6,22.3-66,22.3H541.8c-27.7,0-54.3-9.1-80-27.4c-25.7-18.3-43.5-40.8-53.6-67.4c-8.6-22.9-9-44.6-1.1-65.1   c0-1.4,0.5-6,1.6-13.8c1.1-7.9,1.8-14.2,2.2-19c0.4-2.7-0.2-6.4-1.6-11c-1.4-4.6-2-7.9-1.6-10c0.7-3.8,2.2-7.3,4.3-10.8   c2.2-3.4,5.1-7.4,8.9-12s6.7-8.6,8.9-12c8.3-13,16.3-28.6,24.2-46.9c7.9-18.3,13.3-33.9,16.2-46.9c1.1-3.4,1.2-8.5,0.3-15.4   c-0.9-6.8-1-11.6-0.3-14.4c1.1-3.8,4.1-8.5,9.2-14.4s8.1-9.7,9.2-11.8c7.5-12.3,15.1-28,22.6-47.2c7.5-19.1,12-34.5,13.5-46.1   c0.4-3.1-0.1-8.5-1.3-16.4c-1.3-7.9-1.2-12.6,0.3-14.4c1.4-4.4,5.4-9.7,11.9-15.6s10.4-9.8,11.9-11.5c6.8-8.9,14.5-23.3,22.9-43.3   c8.4-20,13.4-36.5,14.8-49.5c0.4-2.7-0.2-7.1-1.6-13.1c-1.4-6-1.8-10.5-1.1-13.6c0.7-2.7,2.3-5.8,4.8-9.2c2.5-3.4,5.7-7.3,9.7-11.8   s7-8,9.2-10.8c2.9-4.1,5.8-9.3,8.9-15.6c3.1-6.3,5.7-12.3,8.1-17.9s5.2-11.8,8.6-18.5c3.4-6.7,6.9-12.1,10.5-16.4s8.3-8.3,14.3-12   c5.9-3.8,12.4-5.7,19.4-5.9c7-0.2,15.5,0.8,25.6,2.8l-0.5,1.5c13.6-3.1,22.8-4.6,27.5-4.6h409.9c26.6,0,47,9.6,61.4,28.7   c14.4,19.1,17.6,41.4,9.7,66.6l-147.6,464.5c-12.9,40.7-25.8,66.9-38.5,78.7c-12.7,11.8-35.8,17.7-69.2,17.7H485.8   c-9.7,0-16.5,2.6-20.5,7.7c-4,5.5-4.1,12.8-0.5,22c8.6,23.9,34.5,35.9,77.6,35.9h497.2c10.4,0,20.5-2.6,30.2-7.9   c9.7-5.3,16-12.4,18.9-21.3l161.6-506c2.5-7.5,3.4-17.3,2.7-29.2C1266.5,618.8,1277.1,626.1,1284.6,635.7L1284.6,635.7z    M711.5,636.7c-1.4,4.4-1.1,8.3,1.1,11.5c2.2,3.2,5.7,4.9,10.8,4.9h327.5c4.7,0,9.2-1.6,13.7-4.9c4.5-3.2,7.5-7.1,8.9-11.5   l11.3-32.8c1.4-4.4,1.1-8.3-1.1-11.5s-5.7-4.9-10.8-4.9H745.4c-4.7,0-9.2,1.6-13.7,4.9c-4.5,3.2-7.5,7.1-8.9,11.5L711.5,636.7z    M666.8,768c-1.4,4.4-1.1,8.3,1.1,11.5s5.7,4.9,10.8,4.9h327.5c4.7,0,9.2-1.6,13.7-4.9c4.5-3.2,7.5-7.1,8.9-11.5l11.3-32.8   c1.4-4.4,1.1-8.3-1.1-11.5c-2.2-3.2-5.7-4.9-10.8-4.9H700.7c-4.7,0-9.2,1.6-13.7,4.9c-4.5,3.2-7.5,7.1-8.9,11.5L666.8,768z" />
</g>
</svg>