<?xml version="1.0" encoding="utf-8"?>
<!-- Generator: Adobe Illustrator 22.0.1, SVG Export Plug-In . SVG Version: 6.00 Build 0)  -->
<svg version="1.1" id="Layer_1" xmlns="http://www.w3.org/2000/svg" xmlns:xlink="http://www.w3.org/1999/xlink" x="0px" y="0px"
	 viewBox="0 0 1700 1700" style="enable-background:new 0 0 1700 1700;" xml:space="preserve">
<style type="text/css">
	.st0{fill:none;}
	.st1{fill:#CC3333;stroke:#FFFFFF;}
	.st2{fill:#FFFFFF;stroke:#000000;stroke-miterlimit:10;}
</style>
<rect id="backgroundrect" x="-46" y="-46" class="st0" width="1792" height="1792"/>
<g>
	<title>Layer 1</title>
	<path id="svg_2" marker-end="" marker-start="" marker-mid="" class="st1" d="M50,850C50,408,408,50,850,50s800,358,800,800
		s-358,800-800,800S50,1292,50,850z"/>
</g>
<g>
	<path class="st2" d="M1344.4,908.6c24.7,0,44.7,20,44.7,44.7v253.1h-178.7v-119.1H495.6v119.1H317V536.3c0-24.7,20-44.7,44.7-44.7
		H451c24.7,0,44.7,20,44.7,44.7v372.3H1344.4z M674.3,551.2c-82.2,0-148.9,66.7-148.9,148.9S592.1,849,674.3,849
		s148.9-66.7,148.9-148.9S756.6,551.2,674.3,551.2z M1389,789.4c0-98.7-80-178.7-178.7-178.7H897.7c-24.7,0-44.7,20-44.7,44.7V849
		h536V789.4z"/>
</g>
</svg>
