<svg xmlns="http://www.w3.org/2000/svg" width="1792" height="1792" style=""><rect id="backgroundrect" width="100%" height="100%" x="0" y="0" fill="none" stroke="none"/><g class="currentLayer" style=""><title>Layer 1</title><path fill="#a23479" fill-opacity="1" stroke="#ffffff" stroke-opacity="1" stroke-width="1" stroke-dasharray="none" stroke-linejoin="miter" stroke-linecap="butt" stroke-dashoffset="" fill-rule="nonzero" opacity="1" marker-start="" marker-mid="" marker-end="" d="M100,896 C100,447.9337016574586 456.2209944751381,85 896,85 C1335.779005524862,85 1692,447.9337016574586 1692,896 C1692,1344.0662983425414 1335.779005524862,1707 896,1707 C456.2209944751381,1707 100,1344.0662983425414 100,896 z" class="" id="svg_3"/><path d="M700.0355072021484,1059.303581237793 q0,-27.047153115272522 -19.13713663816452,-46.18428975343704 t-46.18428975343704,-19.13713663816452 t-46.18428975343704,19.13713663816452 t-19.13713663816452,46.18428975343704 t19.13713663816452,46.18428975343704 t46.18428975343704,19.13713663816452 t46.18428975343704,-19.13713663816452 t19.13713663816452,-46.18428975343704 zm522.5714111328125,0 q0,-27.047153115272522 -19.13713663816452,-46.18428975343704 t-46.18428975343704,-19.13713663816452 t-46.18428975343704,19.13713663816452 t-19.13713663816452,46.18428975343704 t19.13713663816452,46.18428975343704 t46.18428975343704,19.13713663816452 t46.18428975343704,-19.13713663816452 t19.13713663816452,-46.18428975343704 zm-23.47488760948181,-202.08816289901733 l-36.74330234527588,-195.9642791748047 q-2.551618218421936,-11.737443804740906 -11.482281982898712,-19.13713663816452 t-20.668107569217682,-7.3996928334236145 h-468.47710490226746 q-11.737443804740906,0 -20.668107569217682,7.3996928334236145 t-11.482281982898712,19.13713663816452 l-36.74330234527588,195.9642791748047 q-2.551618218421936,15.309709310531616 7.144531011581421,27.047153115272522 t25.005858540534973,11.737443804740906 h541.9637095928192 q15.309709310531616,0 25.005858540534973,-11.737443804740906 t7.144531011581421,-27.047153115272522 zm-115.33314347267151,-312.31806993484497 q0,-10.206472873687744 -7.144531011581421,-17.351003885269165 t-17.351003885269165,-7.144531011581421 h-326.6071319580078 q-10.206472873687744,0 -17.351003885269165,7.144531011581421 t-7.144531011581421,17.351003885269165 t7.144531011581421,17.351003885269165 t17.351003885269165,7.144531011581421 h326.6071319580078 q10.206472873687744,0 17.351003885269165,-7.144531011581421 t7.144531011581421,-17.351003885269165 zm204.12945747375488,369.9846416711807 v307.7251571416855 h-65.32142639160156 v65.32142639160156 q0,27.047153115272522 -19.13713663816452,46.18428975343704 t-46.18428975343704,19.13713663816452 t-46.18428975343704,-19.13713663816452 t-19.13713663816452,-46.18428975343704 v-65.32142639160156 h-391.9285583496094 v65.32142639160156 q0,27.047153115272522 -19.13713663816452,46.18428975343704 t-46.18428975343704,19.13713663816452 t-46.18428975343704,-19.13713663816452 t-19.13713663816452,-46.18428975343704 v-65.32142639160156 h-65.32142639160156 v-307.7251571416855 q0,-57.15624809265137 12.75809109210968,-113.80217254161835 l52.56333529949188,-231.6869342327118 q4.592912793159485,-39.8052442073822 49.75655525922775,-69.91433918476105 t117.37443804740906,-45.41880428791046 t159.476138651371,-15.309709310531616 t159.476138651371,15.309709310531616 t117.37443804740906,45.41880428791046 t49.75655525922775,69.91433918476105 l53.58398258686066,231.6869342327118 q11.737443804740906,52.053011655807495 11.737443804740906,113.80217254161835 z" fill="#ffffff" id="svg_1" class="" fill-opacity="1"/></g></svg>