<svg xmlns="http://www.w3.org/2000/svg" width="2048" height="1792"><rect id="backgroundrect" width="100%" height="100%" x="0" y="0" fill="none" stroke="none"/><g class="currentLayer" style=""><title>Layer 1</title><path fill="#00b3eb" fill-opacity="1" stroke="#ffffff" stroke-opacity="1" stroke-width="1" stroke-dasharray="none" stroke-linejoin="miter" stroke-linecap="butt" stroke-dashoffset="" fill-rule="nonzero" opacity="1" marker-start="" marker-mid="" marker-end="" d="M228,896 C228,447.9337016574586 584.2209944751381,85 1024,85 C1463.779005524862,85 1820,447.9337016574586 1820,896 C1820,1344.0662983425414 1463.779005524862,1707 1024,1707 C584.2209944751381,1707 228,1344.0662983425414 228,896 z" id="svg_3" class="selected"/><path d="M746.3249973780308,973.3611377171073 q0,-31.911461150501193 -23.990311762786853,-54.63628954555507 t-57.67883466372158,-22.72482839505388 t-57.67883466372158,22.72482839505388 t-23.990311762786853,54.63628954555507 t23.990311762786853,54.63628954555507 t57.67883466372158,22.72482839505388 t57.67883466372158,-22.72482839505388 t23.990311762786853,-54.63628954555507 zm18.375557945964395,-154.7222358812179 h518.5990798083285 l-45.42846269974532,-172.61199440498373 q-1.0208643303313552,-3.8680558970304477 -7.146050312319487,-8.461372274754105 t-10.71907546847923,-4.5933163777236565 h-392.01190284724044 q-4.593889486491099,0 -10.71907546847923,4.5933163777236565 t-7.146050312319487,8.461372274754105 zm700.3129306073098,154.7222358812179 q0,-31.911461150501193 -23.990311762786853,-54.63628954555507 t-57.67883466372158,-22.72482839505388 t-57.67883466372158,22.72482839505388 t-23.990311762786853,54.63628954555507 t23.990311762786853,54.63628954555507 t57.67883466372158,22.72482839505388 t57.67883466372158,-22.72482839505388 t23.990311762786853,-54.63628954555507 zm81.66914642650843,-46.41667076436537 v185.66668305746148 q0,6.769097819803283 -4.593889486491099,11.120660703962537 t-11.739939798810587,4.3515628841592555 h-49.001487855905054 v61.88889435248716 q0,38.680558970304475 -28.58420124927795,65.75695024951762 t-69.41877446253217,27.076391279213134 t-69.41877446253217,-27.076391279213134 t-28.58420124927795,-65.75695024951762 v-61.88889435248716 h-522.682537129654 v61.88889435248716 q0,38.680558970304475 -28.58420124927795,65.75695024951762 t-69.41877446253217,27.076391279213134 t-69.41877446253217,-27.076391279213134 t-28.58420124927795,-65.75695024951762 v-61.88889435248716 h-49.001487855905054 q-7.146050312319487,0 -11.739939798810587,-4.3515628841592555 t-4.593889486491099,-11.120660703962537 v-185.66668305746148 q0,-44.966149802978954 33.43330681835189,-76.63585745991575 t80.90349817875992,-31.66970765693679 h14.292100624638975 l53.595377342396155,-202.58942760696968 q11.739939798810587,-45.44965679010776 53.08494517723048,-76.15235047278694 t91.3673575646563,-30.70269368267918 h392.01190284724044 q50.02235218623641,0 91.3673575646563,30.70269368267918 t53.08494517723048,76.15235047278694 l53.595377342396155,202.58942760696968 h14.292100624638975 q47.47019136040802,0 80.90349817875992,31.66970765693679 t33.43330681835189,76.63585745991575 z" fill="#ffffff" id="svg_1" class="selected" fill-opacity="1"/></g></svg>