<svg xmlns="http://www.w3.org/2000/svg" width="2048" height="1792"><rect id="backgroundrect" width="100%" height="100%" x="0" y="0" fill="none" stroke="none"/><g class="currentLayer" style=""><title>Layer 1</title><path fill="#00b3eb" fill-opacity="1" stroke="#ffffff" stroke-opacity="1" stroke-width="1" stroke-dasharray="none" stroke-linejoin="miter" stroke-linecap="butt" stroke-dashoffset="" fill-rule="nonzero" opacity="1" marker-start="" marker-mid="" marker-end="" d="M228,896 C228,447.9337016574586 584.2209944751381,85 1024,85 C1463.779005524862,85 1820,447.9337016574586 1820,896 C1820,1344.0662983425414 1463.779005524862,1707 1024,1707 C584.2209944751381,1707 228,1344.0662983425414 228,896 z" id="svg_3" class=""/><path d="M822.65625,964.250078201294 q0,-28.153126180171967 -17.3955078125,-48.20156452059746 t-41.8232421875,-20.04843834042549 t-41.8232421875,20.04843834042549 t-17.3955078125,48.20156452059746 t17.3955078125,48.20156452059746 t41.8232421875,20.04843834042549 t41.8232421875,-20.04843834042549 t17.3955078125,-48.20156452059746 zm13.32421875,-136.5000057220459 h376.0390625 l-32.9404296875,-152.28281888365746 q-0.740234375,-3.4125001430511475 -5.181640625,-7.464844062924385 t-7.7724609375,-4.052343919873238 h-284.25 q-3.3310546875,0 -7.7724609375,4.052343919873238 t-5.181640625,7.464844062924385 zm507.80078125,136.5000057220459 q0,-28.153126180171967 -17.3955078125,-48.20156452059746 t-41.8232421875,-20.04843834042549 t-41.8232421875,20.04843834042549 t-17.3955078125,48.20156452059746 t17.3955078125,48.20156452059746 t41.8232421875,20.04843834042549 t41.8232421875,-20.04843834042549 t17.3955078125,-48.20156452059746 zm59.21875,-40.95000171661377 v163.80000686645508 q0,5.971875250339508 -3.3310546875,9.810937911272049 t-8.5126953125,3.839062660932541 h-35.53125 v54.60000228881836 q0,34.125001430511475 -20.7265625,58.01250243186951 t-50.3359375,23.887501001358032 t-50.3359375,-23.887501001358032 t-20.7265625,-58.01250243186951 v-54.60000228881836 h-379 v54.60000228881836 q0,34.125001430511475 -20.7265625,58.01250243186951 t-50.3359375,23.887501001358032 t-50.3359375,-23.887501001358032 t-20.7265625,-58.01250243186951 v-54.60000228881836 h-35.53125 q-5.181640625,0 -8.5126953125,-3.839062660932541 t-3.3310546875,-9.810937911272049 v-163.80000686645508 q0,-39.67031416296959 24.24267578125,-67.61015908420086 t58.66357421875,-27.93984492123127 h10.36328125 l38.8623046875,-178.72969499230385 q8.5126953125,-40.09687668085098 38.4921875,-67.18359656631947 t66.2509765625,-27.086719885468483 h284.25 q36.271484375,0 66.2509765625,27.086719885468483 t38.4921875,67.18359656631947 l38.8623046875,178.72969499230385 h10.36328125 q34.4208984375,0 58.66357421875,27.93984492123127 t24.24267578125,67.61015908420086 z" fill="#ffffff" id="svg_1" class="" fill-opacity="1"/></g></svg>