<?xml version="1.0" encoding="utf-8"?>
<!-- Generator: Adobe Illustrator 21.1.0, SVG Export Plug-In . SVG Version: 6.00 Build 0)  -->
<svg version="1.1" id="Layer_1" xmlns="http://www.w3.org/2000/svg" xmlns:xlink="http://www.w3.org/1999/xlink" x="0px" y="0px"
	 viewBox="0 0 1700 1700" style="enable-background:new 0 0 1700 1700;" xml:space="preserve">
<style type="text/css">
	.st0{fill:none;}
	.st1{fill:#006699;stroke:#FFFFFF;}
	.st2{fill:#FFFFFF;}
	.st3{font-family:'Verdana-Bold';}
	.st4{font-size:540px;}
</style>
<rect id="backgroundrect" x="-174" y="-46" class="st0" width="2048" height="1792"/>
<g>
	<title>Layer 1</title>
	<path id="svg_3" marker-start="" marker-end="" marker-mid="" class="st1" d="M50,850C50,408,408,50,850,50s800,358,800,800
		s-358,800-800,800S50,1292,50,850z"/>
	<path id="svg_1" class="st2" d="M636,564.4c0-16.1-6.1-29.9-18.5-41.3c-12.3-11.4-27.1-17.2-44.5-17.2c-17.3,0-32.1,5.8-44.5,17.2
		c-12.3,11.4-18.5,25.2-18.5,41.3s6.1,29.9,18.5,41.3c12.3,11.4,27.1,17.2,44.5,17.2c17.3,0,32.1-5.8,44.5-17.2S636,580.6,636,564.4
		z M650.2,447.4h399.6l-35-130.6c-0.5-1.9-2.4-4.1-5.5-6.4s-5.9-3.5-8.3-3.5H699c-2.4,0-5.1,1.2-8.3,3.5c-3.1,2.3-5,4.4-5.5,6.4
		L650.2,447.4z M1189.8,564.4c0-16.1-6.1-29.9-18.5-41.3c-12.3-11.4-27.1-17.2-44.5-17.2s-32.1,5.8-44.5,17.2
		c-12.3,11.4-18.5,25.2-18.5,41.3s6.1,29.9,18.5,41.3c12.3,11.4,27.1,17.2,44.5,17.2s32.1-5.8,44.5-17.2
		C1183.7,594.4,1189.8,580.6,1189.8,564.4z M1252.8,529.3v140.4c0,3.5-1.2,6.2-3.5,8.4c-2.4,2.2-5.4,3.3-9,3.3h-37.7v46.8
		c0,19.5-7.4,36.1-22,49.8c-14.7,13.6-32.5,20.5-53.5,20.5s-38.8-6.8-53.5-20.5c-14.7-13.6-22-30.2-22-49.8v-46.8h-403v46.8
		c0,19.5-7.4,36.1-22,49.8c-14.6,13.6-32.5,20.5-53.5,20.5s-38.8-6.8-53.5-20.5c-14.7-13.6-22-30.2-22-49.8v-46.8h-37.7
		c-3.7,0-6.7-1.1-9-3.3c-2.4-2.2-3.5-5-3.5-8.4V529.3c0-22.7,8.6-42,25.8-58c17.2-15.9,38-23.9,62.3-23.9h11l41.3-153.2
		c6.1-22.9,19.6-42.1,40.9-57.6c21.2-15.5,44.7-23.2,70.4-23.2h302.1c25.7,0,49.2,7.7,70.4,23.2c21.2,15.5,34.9,34.7,40.9,57.6
		l41.3,153.2h11c24.4,0,45.2,8,62.3,23.9C1244.2,487.4,1252.8,506.7,1252.8,529.3L1252.8,529.3z"/>
</g>
<rect x="304.6" y="919.8" class="st0" width="1112.7" height="382.4"/>
<text transform="matrix(1 0 0 1 202.8213 1302.2)" class="st2 st3 st4">P+D</text>
</svg>
