<?xml version="1.0" encoding="utf-8"?>
<!-- Generator: Adobe Illustrator 21.0.2, SVG Export Plug-In . SVG Version: 6.00 Build 0)  -->
<svg version="1.1" id="Layer_1" xmlns="http://www.w3.org/2000/svg" xmlns:xlink="http://www.w3.org/1999/xlink" x="0px" y="0px"
	 viewBox="0 0 1700 1700" style="enable-background:new 0 0 1700 1700;" xml:space="preserve">
<style type="text/css">
	.st0{fill:none;}
	.st1{fill:#884D04;}
	.st2{fill:#FFFFFF;}
</style>
<rect id="backgroundrect" x="-174" y="-46" class="st0" width="2048" height="1792"/>
<g>
	<title>Layer 1</title>
	<path id="svg_2" marker-mid="" marker-start="" marker-end="" class="st1" d="M50,850C50,408,408,50,850,50s800,358,800,800
		s-358,800-800,800S50,1292,50,850z"/>
	<path id="svg_1" class="st2" d="M753.9,982.6h192.2v-49.7H882v-232h-57l-74.1,70.9l38.5,41.4c14-12.8,23.2-22.6,27.5-29.5h1v149.1
		h-64.1L753.9,982.6L753.9,982.6z M1010.2,850c0,24.2-3.5,48.7-10.5,73.5c-7,24.9-16.9,48-29.8,69.4c-12.8,21.4-29.8,38.8-50.8,52.3
		s-44,20.2-69.1,20.2s-48-6.7-69.1-20.2c-21-13.5-38-30.9-50.8-52.3c-12.8-21.4-22.8-44.5-29.8-69.4s-10.5-49.4-10.5-73.5
		c0-24.2,3.5-48.7,10.5-73.5s16.9-48,29.8-69.4c12.8-21.4,29.8-38.8,50.8-52.3s44-20.2,69.1-20.2c25,0,48,6.7,69.1,20.2
		s38,30.9,50.8,52.3c12.8,21.4,22.8,44.5,29.8,69.4C1006.7,801.3,1010.2,825.8,1010.2,850L1010.2,850z M1266.4,982.6V717.4
		c-35.4,0-65.6-12.9-90.6-38.8c-25-25.9-37.5-57.1-37.5-93.7H561.7c0,36.6-12.5,67.8-37.5,93.7s-55.2,38.8-90.6,38.8v265.1
		c35.4,0,65.6,12.9,90.6,38.8s37.5,57.1,37.5,93.7h576.6c0-36.6,12.5-67.8,37.5-93.7C1200.9,995.5,1231,982.6,1266.4,982.6z
		 M1330.5,551.7v596.6c0,9-3.2,16.7-9.5,23.3c-6.3,6.6-13.8,9.8-22.5,9.8H401.6c-8.7,0-16.2-3.3-22.5-9.8
		c-6.3-6.6-9.5-14.3-9.5-23.3V551.7c0-9,3.2-16.7,9.5-23.3s13.8-9.8,22.5-9.8h896.9c8.7,0,16.2,3.3,22.5,9.8
		C1327.3,535,1330.5,542.7,1330.5,551.7z"/>
</g>
</svg>
