<svg xmlns="http://www.w3.org/2000/svg" width="2048" height="1792"><rect id="backgroundrect" width="100%" height="100%" x="0" y="0" fill="none" stroke="none"/><g class="currentLayer" style=""><title>Layer 1</title><path fill="#f9f9f9" fill-opacity="1" stroke="#333333" stroke-opacity="1" stroke-width="1" stroke-dasharray="none" stroke-linejoin="miter" stroke-linecap="butt" stroke-dashoffset="" fill-rule="nonzero" opacity="1" marker-start="" marker-mid="" marker-end="" d="M175.22222900390625,893.7777779102325 C175.22222900390625,439.3578884074701 556.0564831475526,71.27777791023254 1026.2222290039062,71.27777791023254 C1496.3879748602599,71.27777791023254 1877.2222290039062,439.3578884074701 1877.2222290039062,893.7777779102325 C1877.2222290039062,1348.197667412995 1496.3879748602599,1716.2777779102325 1026.2222290039062,1716.2777779102325 C556.0564831475526,1716.2777779102325 175.22222900390625,1348.197667412995 175.22222900390625,893.7777779102325 z" id="svg_2" class=""/><path d="M923.9998857622547,1030.0740596238074 h204.44445713558076 v-51.11111428389519 h-68.14815237852692 v-238.5185333248442 h-60.694448212125536 l-78.79630118767176,72.9398193426421 l40.9953729152076,42.59259523657933 q22.361112499204147,-19.69907529691794 29.282409225148285,-30.347224106062775 h1.064814880914484 v153.3333428516856 h-68.14815237852692 v51.11111428389519 zm272.59260951410766,-136.29630475705383 q0,37.26852083200691 -11.180556249602073,75.60185654492831 t-31.678242707205875,71.34259702127036 t-54.03935520641002,53.7731514861814 t-73.47222678309933,20.763890177832423 t-73.47222678309933,-20.763890177832423 t-54.03935520641002,-53.7731514861814 t-31.678242707205875,-71.34259702127036 t-11.180556249602073,-75.60185654492831 t11.180556249602073,-75.60185654492831 t31.678242707205875,-71.34259702127036 t54.03935520641002,-53.7731514861814 t73.47222678309933,-20.763890177832423 t73.47222678309933,20.763890177832423 t54.03935520641002,53.7731514861814 t31.678242707205875,71.34259702127036 t11.180556249602073,75.60185654492831 zm272.59260951410766,136.29630475705383 v-272.59260951410766 q-56.435188688467605,0 -96.36574672276072,-39.93055803429312 t-39.93055803429312,-96.36574672276072 h-613.3333714067423 q0,56.435188688467605 -39.93055803429312,96.36574672276072 t-96.36574672276072,39.93055803429312 v272.59260951410766 q56.435188688467605,0 96.36574672276072,39.93055803429312 t39.93055803429312,96.36574672276072 h613.3333714067423 q0,-56.435188688467605 39.93055803429312,-96.36574672276072 t96.36574672276072,-39.93055803429312 zm68.14815237852692,-442.962990460425 v613.3333714067423 q0,13.84259345188828 -10.11574136868759,23.95833482057587 t-23.95833482057587,10.11574136868759 h-954.0741332993769 q-13.84259345188828,0 -23.95833482057587,-10.11574136868759 t-10.11574136868759,-23.95833482057587 v-613.3333714067423 q0,-13.84259345188828 10.11574136868759,-23.95833482057587 t23.95833482057587,-10.11574136868759 h954.0741332993769 q13.84259345188828,0 23.95833482057587,10.11574136868759 t10.11574136868759,23.95833482057587 z" fill="#333333" id="svg_1" class="" fill-opacity="1"/></g></svg>