<?xml version="1.0" encoding="utf-8"?>
<!-- Generator: Adobe Illustrator 22.0.1, SVG Export Plug-In . SVG Version: 6.00 Build 0)  -->
<svg version="1.1" id="Layer_1" xmlns="http://www.w3.org/2000/svg" xmlns:xlink="http://www.w3.org/1999/xlink" x="0px" y="0px"
	 viewBox="0 0 1700 1700" style="enable-background:new 0 0 1700 1700;" xml:space="preserve">
<style type="text/css">
	.st0{fill:none;}
	.st1{fill:#006699;stroke:#FFFFFF;}
	.st2{fill:#FFFFFF;stroke:#000000;stroke-miterlimit:10;}
</style>
<rect id="backgroundrect" x="-174" y="-46" class="st0" width="2048" height="1792"/>
<title>Layer 1</title>
<path id="svg_3" marker-end="" marker-start="" marker-mid="" class="st1" d="M50,850C50,408,408,50,850,50s800,358,800,800
	s-358,800-800,800S50,1292,50,850z"/>
<g>
	<path class="st2" d="M1387.3,1090.9l29.4,59.3c8.1,16.4,1.4,36.2-14.9,44.4l-135.5,68.1c-33.2,16.5-73.6,2.5-89.4-31.2
		l-129.9-276.5H758c-33,0-60.9-24.2-65.6-56.9c-70.1-490.9-66.1-460.4-66.9-472.9c0-75.2,62.7-135.8,138.8-132.3
		c68.8,3.2,124.3,59.8,126.1,128.7c1.8,68.1-47.9,125-113,134.6l9.7,67.6H1056c18.3,0,33.1,14.8,33.1,33.1v66.2
		c0,18.3-14.8,33.1-33.1,33.1H806l9.5,66.2h273.7c25.7,0,49,14.8,59.9,38.1l119,253.3l74.9-38
		C1359.3,1067.9,1379.2,1074.6,1387.3,1090.9L1387.3,1090.9z M1005,1021.3h-50.7c-16.1,112.2-112.8,198.7-229.4,198.7
		c-127.8,0-231.8-104-231.8-231.8c0-85.9,47-161,116.6-201c-7.7-53.7-14.2-99-19.6-137.3C455.8,703.6,360.7,835,360.7,988.2
		c0,200.8,163.4,364.2,364.2,364.2c148.7,0,276.9-89.6,333.4-217.7L1005,1021.3z"/>
</g>
</svg>
