<svg xmlns="http://www.w3.org/2000/svg" width="2048" height="1792"><rect id="backgroundrect" width="100%" height="100%" x="0" y="0" fill="none" stroke="none"/><g class="currentLayer" style=""><title>Layer 1</title><path fill="#333333" fill-opacity="1" stroke="#ffffff" stroke-opacity="1" stroke-width="1" stroke-dasharray="none" stroke-linejoin="miter" stroke-linecap="butt" stroke-dashoffset="" fill-rule="nonzero" opacity="1" marker-start="" marker-mid="" marker-end="" d="M197,896 C197,443.7900552486188 567.0939226519338,77.5 1024,77.5 C1480.9060773480662,77.5 1851,443.7900552486188 1851,896 C1851,1348.2099447513813 1480.9060773480662,1714.5 1024,1714.5 C567.0939226519338,1714.5 197,1348.2099447513813 197,896 z" id="svg_3" class=""/><path d="M1434.6023219502822,717.4771931739233 q0,-44.63068431805368 -31.241479022637577,-75.87216334069126 t-75.87216334069126,-31.241479022637577 h-35.704547454442945 v214.22728472665767 h35.704547454442945 q44.63068431805368,0 75.87216334069126,-31.241479022637577 t31.241479022637577,-75.87216334069126 zm-928.3182338155166,428.45456945331534 h999.7273287244025 q0,59.13565672142113 -41.84126654817533,100.97692326959645 t-100.97692326959645,41.84126654817533 h-714.0909490888589 q-59.13565672142113,0 -100.97692326959645,-41.84126654817533 t-41.84126654817533,-100.97692326959645 zm1035.4318761788454,-428.45456945331534 q0,88.70348508213169 -62.76189982226299,151.46538490439468 t-151.46538490439468,62.76189982226299 h-35.704547454442945 v17.852273727221473 q0,51.325286965761734 -36.82031456239429,88.14560152815602 t-88.14560152815602,36.82031456239429 h-392.7500219988724 q-51.325286965761734,0 -88.14560152815602,-36.82031456239429 t-36.82031456239429,-88.14560152815602 v-410.60229572609387 q0,-14.504972403367447 10.59978752553775,-25.104759928905196 t25.104759928905196,-10.59978752553775 h642.681854179973 q88.70348508213169,0 151.46538490439468,62.76189982226299 t62.76189982226299,151.46538490439468 z" fill="#ffffff" id="svg_1" class="" fill-opacity="1"/></g></svg>