<?xml version="1.0" encoding="utf-8"?>
<!-- Generator: Adobe Illustrator 22.0.1, SVG Export Plug-In . SVG Version: 6.00 Build 0)  -->
<svg version="1.1" id="Layer_1" xmlns="http://www.w3.org/2000/svg" xmlns:xlink="http://www.w3.org/1999/xlink" x="0px" y="0px"
	 viewBox="0 0 1700 1700" style="enable-background:new 0 0 1700 1700;" xml:space="preserve">
<style type="text/css">
	.st0{fill:none;}
	.st1{fill:#009999;}
	.st2{fill:#FFFFFF;stroke:#000000;stroke-miterlimit:10;}
</style>
<rect id="backgroundrect" x="-46" y="-46" class="st0" width="1792" height="1792"/>
<g>
	<title>Layer 1</title>
	<path id="svg_2" marker-end="" marker-start="" marker-mid="" class="st1" d="M50,850C50,408,408,50,850,50s800,358,800,800
		s-358,800-800,800S50,1292,50,850z"/>
</g>
<g>
	<path class="st2" d="M694.3,1191.5H735V897.4h-40.7c-22.5,0-40.7-18.2-40.7-40.7v-97.3c0-22.5,18.2-40.7,40.7-40.7h228
		c22.5,0,40.7,18.2,40.7,40.7v432.1h40.7c22.5,0,40.7,18.2,40.7,40.7v97.3c0,22.5-18.2,40.7-40.7,40.7H694.3
		c-22.5,0-40.7-18.2-40.7-40.7v-97.3C653.6,1209.7,671.8,1191.5,694.3,1191.5z M849,327.8c-81,0-146.6,65.6-146.6,146.6
		S768,621,849,621s146.6-65.6,146.6-146.6S930,327.8,849,327.8z"/>
</g>
</svg>
