<svg xmlns="http://www.w3.org/2000/svg" width="1792" height="1792"><rect id="backgroundrect" width="100%" height="100%" x="0" y="0" fill="none" stroke="none"/><g class="currentLayer" style=""><title>Layer 1</title><path fill="#b62d2d" fill-opacity="1" stroke="#ffffff" stroke-opacity="1" stroke-width="1" stroke-dasharray="none" stroke-linejoin="miter" stroke-linecap="butt" stroke-dashoffset="" fill-rule="nonzero" opacity="1" marker-start="" marker-mid="" marker-end="" d="M80.5,896 C80.5,447.38121546961327 445.4475138121547,84 896,84 C1346.5524861878453,84 1711.5,447.38121546961327 1711.5,896 C1711.5,1344.6187845303866 1346.5524861878453,1708 896,1708 C445.4475138121547,1708 80.5,1344.6187845303866 80.5,896 z" id="svg_2" class="selected"/><path d="M1357.0505293842725,767.3586451081075 v408.56487713331524 q0,33.96131220503628 -24.18457081267735,58.14588301771363 t-58.14588301771363,24.18457081267735 h-757.440175239597 q-33.96131220503628,0 -58.14588301771363,-24.18457081267735 t-24.18457081267735,-58.14588301771363 v-408.56487713331524 q22.64087480335752,25.213701485557237 51.971098980434306,44.767184270275095 q186.2726517912596,126.58307276422613 255.73897221065198,177.52504107178055 q29.330224177076786,21.611744130477632 47.597293620694785,33.70402953681631 t48.62642429357467,24.699136149117294 t56.6021870083938,12.606850742778619 h1.0291306728798872 q26.242832158437125,0 56.6021870083938,-12.606850742778619 t48.62642429357467,-24.699136149117294 t47.597293620694785,-33.70402953681631 q87.47610719479042,-63.291536382113065 256.2535375470919,-177.52504107178055 q29.330224177076786,-20.0680481211578 51.45653364399436,-44.767184270275095 zm0,-151.28220891334342 q0,40.650661578755546 -25.213701485557237,77.69936580243149 t-62.77697104567312,63.291536382113065 q-193.4765665014188,134.30155281082529 -240.81657745389361,167.23373434298168 q-5.145653364399436,3.6019573550796053 -21.869026798697604,15.69424276141828 t-27.786528167756956,19.553482784717858 t-26.75739749487707,16.723373434298168 t-29.58750684529676,13.893264083878478 t-25.72826682199718,4.6310880279594935 h-1.0291306728798872 q-11.835002738118703,0 -25.72826682199718,-4.6310880279594935 t-29.58750684529676,-13.893264083878478 t-26.75739749487707,-16.723373434298168 t-27.786528167756956,-19.553482784717858 t-21.869026798697604,-15.69424276141828 q-46.82544561603487,-32.93218153215639 -134.81611814726523,-93.90817390028971 t-105.48589397018844,-73.32556044269197 q-31.903050859276505,-21.611744130477632 -60.204144363473404,-59.43229635881349 t-28.3010935041969,-70.2381684240523 q0,-40.1360962423156 21.35446146225766,-66.89349373719267 t60.97599236813332,-26.75739749487707 h757.440175239597 q33.446746868596335,0 57.88860034949366,24.18457081267735 t24.441853480897322,58.14588301771363 z" fill="#ffffff" id="svg_1" class="selected" fill-opacity="1"/></g></svg>