<svg xmlns="http://www.w3.org/2000/svg" width="1792" height="1792"><rect id="backgroundrect" width="100%" height="100%" x="0" y="0" fill="none" stroke="none"/><g class="currentLayer" style=""><title>Layer 1</title><path fill="#f0f2e9" fill-opacity="1" stroke="#6d6d6d" stroke-opacity="1" stroke-width="1" stroke-dasharray="none" stroke-linejoin="miter" stroke-linecap="butt" stroke-dashoffset="" fill-rule="nonzero" opacity="1" marker-start="" marker-mid="" marker-end="" d="M124.3951416015625,895.9999492168427 C124.3951416015625,434.4898258796713 469.6989659252087,60.6666259765625 895.9999836087227,60.6666259765625 C1322.3010012922366,60.6666259765625 1667.6048256158829,434.4898258796713 1667.6048256158829,895.9999492168427 C1667.6048256158829,1357.510072554014 1322.3010012922366,1731.3332724571228 895.9999836087227,1731.3332724571228 C469.6989659252087,1731.3332724571228 124.3951416015625,1357.510072554014 124.3951416015625,895.9999492168427 z" id="svg_2" class=""/><path d="M639.2037077587074,1262.851887612439 h513.5925995362459 v-146.74074272464168 h-513.5925995362459 v146.74074272464168 zm0,-366.8518568116042 h513.5925995362459 v-220.11111408696252 h-91.71296420290105 q-22.928241050725262,0 -38.978009786232946,-16.049768735507683 t-16.049768735507683,-38.978009786232946 v-91.71296420290105 h-366.8518568116042 v366.8518568116042 zm660.3333422608875,36.68518568116042 q0,-14.90335668297142 -10.8909144990945,-25.79427118206592 t-25.79427118206592,-10.8909144990945 t-25.79427118206592,10.8909144990945 t-10.8909144990945,25.79427118206592 t10.8909144990945,25.79427118206592 t25.79427118206592,10.8909144990945 t25.79427118206592,-10.8909144990945 t10.8909144990945,-25.79427118206592 zm73.37037136232084,0 v238.45370692754273 q0,7.45167834148571 -5.44545724954725,12.89713559103296 t-12.89713559103296,5.44545724954725 h-128.39814988406147 v91.71296420290105 q0,22.928241050725262 -16.049768735507683,38.978009786232946 t-38.978009786232946,16.049768735507683 h-550.2777852174063 q-22.928241050725262,0 -38.978009786232946,-16.049768735507683 t-16.049768735507683,-38.978009786232946 v-91.71296420290105 h-128.39814988406147 q-7.45167834148571,0 -12.89713559103296,-5.44545724954725 t-5.44545724954725,-12.89713559103296 v-238.45370692754273 q0,-45.28327607518239 32.386140484149436,-77.66941655933182 t77.66941655933182,-32.386140484149436 h36.68518568116042 v-311.82407828986356 q0,-22.928241050725262 16.049768735507683,-38.978009786232946 t38.978009786232946,-16.049768735507683 h385.1944496521844 q22.928241050725262,0 50.44213031159558,11.464120525362631 t43.563657996378,27.513889260870315 l87.127315992756,87.127315992756 q16.049768735507683,16.049768735507683 27.513889260870315,43.563657996378 t11.464120525362631,50.44213031159558 v146.74074272464168 h36.68518568116042 q45.28327607518239,0 77.66941655933182,32.386140484149436 t32.386140484149436,77.66941655933182 z" fill="#333" id="svg_1" class=""/></g></svg>