<svg xmlns="http://www.w3.org/2000/svg" width="2048" height="1792"><rect id="backgroundrect" width="100%" height="100%" x="0" y="0" fill="none" stroke="none"/><g class="currentLayer" style=""><title>Layer 1</title><path fill="#e4b53c" fill-opacity="1" stroke="#ffffff" stroke-opacity="1" stroke-width="4" stroke-dasharray="none" stroke-linejoin="miter" stroke-linecap="butt" stroke-dashoffset="" fill-rule="nonzero" opacity="1" marker-start="" marker-mid="" marker-end="" d="M183.55554633266047,895.9999854331232 C183.55554633266047,422.916025939797 559.666044141436,39.71801875020276 1023.9999920535047,39.71801875020276 C1488.3339399655733,39.71801875020276 1864.444437774349,422.916025939797 1864.444437774349,895.9999854331232 C1864.444437774349,1369.0839449264492 1488.3339399655733,1752.2819521160436 1023.9999920535047,1752.2819521160436 C559.666044141436,1752.2819521160436 183.55554633266047,1369.0839449264492 183.55554633266047,895.9999854331232 z" class="" id="svg_3"/><path d="M1459.9999945559503,833.7142133400994 q25.790179166828494,0 44.03794744524488,18.247768278416387 t18.247768278416387,44.03794744524488 t-18.247768278416387,44.03794744524488 t-44.03794744524488,18.247768278416387 h-7.299107311366555 l-55.95982272047692,322.1339360083106 q-3.8928572327288293,22.38392908819077 -21.41071478000856,36.98214371092388 t-39.9017866354705,14.59821462273311 h-622.8571572366127 q-22.38392908819077,0 -39.9017866354705,-14.59821462273311 t-21.41071478000856,-36.98214371092388 l-55.95982272047692,-322.1339360083106 h-7.299107311366555 q-25.790179166828494,0 -44.03794744524488,-18.247768278416387 t-18.247768278416387,-44.03794744524488 t18.247768278416387,-44.03794744524488 t44.03794744524488,-18.247768278416387 h872.0000201312578 zm-698.2812661207338,389.28572327288293 q12.651786006368695,-0.9732143081822049 21.16741120296301,-10.948660967049832 t7.542410888412107,-22.62723266523632 l-15.571428930915317,-202.42857610189913 q-0.9732143081822049,-12.651786006368695 -10.948660967049832,-21.16741120296301 t-22.62723266523632,-7.542410888412107 t-21.16741120296301,10.948660967049832 t-7.542410888412107,22.62723266523632 l15.571428930915317,202.42857610189913 q0.9732143081822049,12.165178852277592 9.975446658867625,20.437500471826354 t21.16741120296301,8.272321619548762 h2.4330357704555183 zm199.9955403314436,-31.142857861830635 v-202.42857610189913 q0,-12.651786006368695 -9.24553592773097,-21.897321934099665 t-21.897321934099665,-9.24553592773097 t-21.897321934099665,9.24553592773097 t-9.24553592773097,21.897321934099665 v202.42857610189913 q0,12.651786006368695 9.24553592773097,21.897321934099665 t21.897321934099665,9.24553592773097 t21.897321934099665,-9.24553592773097 t9.24553592773097,-21.897321934099665 zm186.8571471709838,0 v-202.42857610189913 q0,-12.651786006368695 -9.24553592773097,-21.897321934099665 t-21.897321934099665,-9.24553592773097 t-21.897321934099665,9.24553592773097 t-9.24553592773097,21.897321934099665 v202.42857610189913 q0,12.651786006368695 9.24553592773097,21.897321934099665 t21.897321934099665,9.24553592773097 t21.897321934099665,-9.24553592773097 t9.24553592773097,-21.897321934099665 zm171.2857182400685,2.4330357704555183 l15.571428930915317,-202.42857610189913 q0.9732143081822049,-12.651786006368695 -7.542410888412107,-22.62723266523632 t-21.16741120296301,-10.948660967049832 t-22.62723266523632,7.542410888412107 t-10.948660967049832,21.16741120296301 l-15.571428930915317,202.42857610189913 q-0.9732143081822049,12.651786006368695 7.542410888412107,22.62723266523632 t21.16741120296301,10.948660967049832 h2.4330357704555183 q12.165178852277592,0 21.16741120296301,-8.272321619548762 t9.975446658867625,-20.437500471826354 zm-562.5178701293158,-592.2009065288731 l-45.25446533047264,200.4821474855347 h-64.23214434002568 l49.14732256320147,-214.59375495417672 q9.24553592773097,-42.82142956001712 43.308036714108226,-69.82812661207338 t77.85714465457659,-27.006697052056253 h81.26339473321431 q0,-12.651786006368695 9.24553592773097,-21.897321934099665 t21.897321934099665,-9.24553592773097 h186.8571471709838 q12.651786006368695,0 21.897321934099665,9.24553592773097 t9.24553592773097,21.897321934099665 h81.26339473321431 q43.79464386819933,0 77.85714465457659,27.006697052056253 t43.308036714108226,69.82812661207338 l49.14732256320147,214.59375495417672 h-64.23214434002568 l-45.25446533047264,-200.4821474855347 q-5.35267869500214,-21.41071478000856 -22.140625511145217,-35.035715094559464 t-38.68526875024274,-13.625000314550903 h-81.26339473321431 q0,12.651786006368695 -9.24553592773097,21.897321934099665 t-21.897321934099665,9.24553592773097 h-186.8571471709838 q-12.651786006368695,0 -21.897321934099665,-9.24553592773097 t-9.24553592773097,-21.897321934099665 h-81.26339473321431 q-21.897321934099665,0 -38.68526875024274,13.625000314550903 t-22.140625511145217,35.035715094559464 z" fill="#484848" id="svg_1" class="" fill-opacity="1"/></g></svg>