<?xml version="1.0" encoding="utf-8"?>
<!-- Generator: Adobe Illustrator 21.0.2, SVG Export Plug-In . SVG Version: 6.00 Build 0)  -->
<svg version="1.1" id="Layer_1" xmlns="http://www.w3.org/2000/svg" xmlns:xlink="http://www.w3.org/1999/xlink" x="0px" y="0px"
	 viewBox="0 0 1700 1700" style="enable-background:new 0 0 1700 1700;" xml:space="preserve">
<style type="text/css">
	.st0{fill:none;}
	.st1{fill:#CCCC00;stroke:#FFFFFF;stroke-width:4;}
	.st2{fill:#FFFFFF;}
</style>
<rect id="backgroundrect" x="-174" y="-46" class="st0" width="2048" height="1792"/>
<g>
	<title>Layer 1</title>
	<path id="svg_3" marker-start="" marker-end="" marker-mid="" class="st1" d="M50,850C50,408,408,50,850,50s800,358,800,800
		s-358,800-800,800S50,1292,50,850z"/>
	<path id="svg_1" class="st2" d="M1265,791.8c16.4,0,30.3,5.7,41.9,17c11.6,11.4,17.4,25.1,17.4,41.1c0,16.1-5.8,29.8-17.4,41.1
		c-11.6,11.4-25.6,17-41.9,17h-6.9l-53.3,301c-2.5,13.9-9.3,25.5-20.4,34.6c-11.1,9.1-23.8,13.6-38,13.6H553.6
		c-14.2,0-26.9-4.5-38-13.6c-11.1-9.1-17.9-20.6-20.4-34.6l-53.3-301H435c-16.4,0-30.3-5.7-41.9-17c-11.6-11.4-17.4-25.1-17.4-41.1
		c0-16.1,5.8-29.8,17.4-41.1c11.6-11.4,25.6-17,41.9-17H1265z M600.3,1155.5c8-0.6,14.7-4,20.1-10.2c5.4-6.2,7.8-13.3,7.2-21.1
		L612.8,935c-0.6-7.9-4.1-14.5-10.4-19.8c-6.3-5.3-13.5-7.7-21.5-7c-8,0.6-14.7,4-20.1,10.2c-5.4,6.2-7.8,13.3-7.2,21.1l14.8,189.1
		c0.6,7.6,3.8,13.9,9.5,19.1c5.7,5.2,12.4,7.7,20.1,7.7L600.3,1155.5L600.3,1155.5z M790.7,1126.4V937.3c0-7.9-2.9-14.7-8.8-20.5
		c-5.9-5.8-12.8-8.6-20.8-8.6s-15,2.9-20.8,8.6c-5.9,5.8-8.8,12.6-8.8,20.5v189.1c0,7.9,2.9,14.7,8.8,20.5
		c5.9,5.8,12.8,8.6,20.8,8.6s15-2.9,20.8-8.6S790.7,1134.3,790.7,1126.4z M968.6,1126.4V937.3c0-7.9-2.9-14.7-8.8-20.5
		c-5.9-5.8-12.8-8.6-20.8-8.6s-15,2.9-20.8,8.6c-5.9,5.8-8.8,12.6-8.8,20.5v189.1c0,7.9,2.9,14.7,8.8,20.5
		c5.9,5.8,12.8,8.6,20.8,8.6s15-2.9,20.8-8.6S968.6,1134.3,968.6,1126.4z M1131.6,1128.7l14.8-189.1c0.6-7.9-1.8-14.9-7.2-21.1
		s-12.1-9.6-20.1-10.2c-8-0.6-15.2,1.7-21.5,7c-6.3,5.3-9.8,11.9-10.4,19.8l-14.8,189.1c-0.6,7.9,1.8,14.9,7.2,21.1
		c5.4,6.2,12.1,9.6,20.1,10.2h2.3c7.7,0,14.4-2.6,20.1-7.7C1127.8,1142.6,1131,1136.3,1131.6,1128.7L1131.6,1128.7z M596.2,575.4
		l-43.1,187.3H492l46.8-200.5c5.9-26.7,19.6-48.4,41.2-65.2c21.6-16.8,46.3-25.2,74.1-25.2h77.4c0-7.9,2.9-14.7,8.8-20.5
		c5.9-5.8,12.8-8.6,20.8-8.6h177.9c8,0,15,2.9,20.8,8.6c5.9,5.8,8.8,12.6,8.8,20.5h77.4c27.8,0,52.5,8.4,74.1,25.2
		c21.6,16.8,35.4,38.6,41.2,65.2l46.8,200.5h-61.1l-43.1-187.3c-3.4-13.3-10.4-24.2-21.1-32.7c-10.7-8.5-22.9-12.7-36.8-12.7h-77.4
		c0,7.9-2.9,14.7-8.8,20.5c-5.9,5.8-12.8,8.6-20.8,8.6H761.1c-8,0-15-2.9-20.8-8.6c-5.9-5.8-8.8-12.6-8.8-20.5h-77.4
		c-13.9,0-26.2,4.2-36.8,12.7C606.6,551.2,599.6,562.1,596.2,575.4L596.2,575.4z"/>
</g>
</svg>
