<svg xmlns="http://www.w3.org/2000/svg" width="1792" height="1792"><rect id="backgroundrect" width="100%" height="100%" x="0" y="0" fill="none" stroke="none"/><g class="currentLayer" style=""><title>Layer 1</title><path fill="#caccb8" fill-opacity="1" stroke="#484848" stroke-opacity="1" stroke-width="4" stroke-dasharray="none" stroke-linejoin="miter" stroke-linecap="butt" stroke-dashoffset="" fill-rule="nonzero" opacity="1" marker-start="" marker-mid="" marker-end="" d="M107,896 C107,437.9889502762431 460.08839779005524,67 896,67 C1331.9116022099447,67 1685,437.9889502762431 1685,896 C1685,1354.011049723757 1331.9116022099447,1725 896,1725 C460.08839779005524,1725 107,1354.011049723757 107,896 z" id="svg_3" class="selected"/><path d="M1324.6431192638158,673.9374113224814 q21.25000101869695,30.281251451643154 9.562500458413627,68.53125328529767 l-146.09375700354153,481.3125230734859 q-10.09375048388105,34.00000162991512 -40.64062694825792,57.109377737748055 t-65.07812811975941,23.109376107832933 h-490.34377350643217 q-40.90625196099163,0 -78.89062878191243,-28.42187636250717 t-52.859377534008665,-69.85937834896623 q-12.75000061121817,-35.59375170631739 -1.0625000509348475,-67.46875323436282 q0,-2.125000101869695 1.5937500764022716,-14.343750687620442 t2.125000101869695,-19.65625094229468 q0.531250025467424,-4.25000020373939 -1.5937500764022716,-11.421875547549611 t-1.5937500764022716,-10.359375496614764 q1.0625000509348475,-5.843750280141661 4.25000020373939,-11.156250534815898 t8.765625420212492,-12.484375598484458 t8.765625420212492,-12.484375598484458 q12.218750585750746,-20.1875009677621 23.90625114603407,-48.609377330269275 t15.937500764022714,-48.609377330269275 q1.5937500764022716,-5.312500254674237 0.2656250127337122,-15.937500764022714 t-0.2656250127337122,-14.875000713087866 q1.5937500764022716,-5.843750280141661 9.031250432946203,-14.875000713087866 t9.031250432946203,-12.218750585750746 q11.156250534815898,-19.125000916827254 22.312501069631796,-48.87500234300298 t13.281250636685595,-47.81250229206814 q0.531250025467424,-4.7812502292068135 -1.3281250636685598,-17.00000081495756 t0.2656250127337122,-14.875000713087866 q2.125000101869695,-6.906250331076509 11.687500560283322,-16.203125776756426 t11.687500560283322,-11.953125573017035 q10.09375048388105,-13.812500662153019 22.57812608236551,-44.89062715199731 t14.609375700354153,-51.26562745760639 q0.531250025467424,-4.25000020373939 -1.5937500764022716,-13.546875649419306 t-1.0625000509348475,-14.07812567488673 q1.0625000509348475,-4.25000020373939 4.7812502292068135,-9.562500458413627 t9.562500458413627,-12.218750585750746 t9.031250432946203,-11.156250534815898 q4.25000020373939,-6.375000305609085 8.765625420212492,-16.203125776756426 t7.968750382011357,-18.593750891359832 t8.50000040747878,-19.125000916827254 t10.359375496614764,-17.00000081495756 t14.07812567488673,-12.484375598484458 t19.125000916827254,-6.109375292875373 t25.234376209702628,2.9218751400708305 l-0.531250025467424,1.5937500764022716 q20.1875009677621,-4.7812502292068135 27.09375129883861,-4.7812502292068135 h404.28126938070943 q39.31250188458936,0 60.56250290328631,29.750001426175732 t9.562500458413627,69.0625033107651 l-145.5625069780741,481.3125230734859 q-19.125000916827254,63.218753030623425 -37.9843768209208,81.54687890924954 t-68.26562827256396,18.32812587862612 h-461.6562721311912 q-14.343750687620442,0 -20.1875009677621,7.968750382011357 q-5.843750280141661,8.50000040747878 -0.531250025467424,22.843751095099222 q12.75000061121817,37.187501782719664 76.50000366730902,37.187501782719664 h490.34377350643217 q15.40625073855529,0 29.750001426175732,-8.234375394745069 t18.593750891359832,-22.046876056898085 l159.37500764022712,-524.3437751363473 q3.7187501782719665,-11.687500560283322 2.6562501273371186,-30.281251451643154 q20.1875009677621,7.968750382011357 31.343751502578,22.843751095099222 zm-565.2500270973388,1.0625000509348475 q-2.125000101869695,6.906250331076509 1.0625000509348475,11.953125573017035 t10.625000509348475,5.046875241940525 h323.0000154841936 q6.906250331076509,0 13.546875649419306,-5.046875241940525 t8.765625420212492,-11.953125573017035 l11.156250534815898,-34.00000162991512 q2.125000101869695,-6.906250331076509 -1.0625000509348475,-11.953125573017035 t-10.625000509348475,-5.046875241940525 h-323.0000154841936 q-6.906250331076509,0 -13.546875649419306,5.046875241940525 t-8.765625420212492,11.953125573017035 zm-44.09375211379617,136.00000651966047 q-2.125000101869695,6.906250331076509 1.0625000509348475,11.953125573017035 t10.625000509348475,5.046875241940525 h323.0000154841936 q6.906250331076509,0 13.546875649419306,-5.046875241940525 t8.765625420212492,-11.953125573017035 l11.156250534815898,-34.00000162991512 q2.125000101869695,-6.906250331076509 -1.0625000509348475,-11.953125573017035 t-10.625000509348475,-5.046875241940525 h-323.0000154841936 q-6.906250331076509,0 -13.546875649419306,5.046875241940525 t-8.765625420212492,11.953125573017035 z" fill="#333" id="svg_1" class=""/></g></svg>